<svg width="1440" height="410" viewBox="0 0 1440 410" fill="none" xmlns="http://www.w3.org/2000/svg">
<rect width="1440" height="410" fill="#FAFAFA"/>
<path d="M677.199 130.258V133H668.117V130.258H677.199ZM669.266 115.938V133H665.75V115.938H669.266ZM676.016 122.887V125.559H668.117V122.887H676.016ZM677.188 115.938V118.691H668.117V115.938H677.188ZM686.188 118.855L681.547 133H677.809L684.148 115.938H686.527L686.188 118.855ZM690.043 133L685.391 118.855L685.016 115.938H687.418L693.793 133H690.043ZM689.832 126.648V129.402H680.82V126.648H689.832ZM704.258 128.535C704.258 128.23 704.211 127.957 704.117 127.715C704.031 127.465 703.867 127.238 703.625 127.035C703.383 126.824 703.043 126.617 702.605 126.414C702.168 126.211 701.602 126 700.906 125.781C700.133 125.531 699.398 125.25 698.703 124.938C698.016 124.625 697.406 124.262 696.875 123.848C696.352 123.426 695.938 122.938 695.633 122.383C695.336 121.828 695.188 121.184 695.188 120.449C695.188 119.738 695.344 119.094 695.656 118.516C695.969 117.93 696.406 117.43 696.969 117.016C697.531 116.594 698.195 116.27 698.961 116.043C699.734 115.816 700.582 115.703 701.504 115.703C702.762 115.703 703.859 115.93 704.797 116.383C705.734 116.836 706.461 117.457 706.977 118.246C707.5 119.035 707.762 119.938 707.762 120.953H704.27C704.27 120.453 704.164 120.016 703.953 119.641C703.75 119.258 703.438 118.957 703.016 118.738C702.602 118.52 702.078 118.41 701.445 118.41C700.836 118.41 700.328 118.504 699.922 118.691C699.516 118.871 699.211 119.117 699.008 119.43C698.805 119.734 698.703 120.078 698.703 120.461C698.703 120.75 698.773 121.012 698.914 121.246C699.062 121.48 699.281 121.699 699.57 121.902C699.859 122.105 700.215 122.297 700.637 122.477C701.059 122.656 701.547 122.832 702.102 123.004C703.031 123.285 703.848 123.602 704.551 123.953C705.262 124.305 705.855 124.699 706.332 125.137C706.809 125.574 707.168 126.07 707.41 126.625C707.652 127.18 707.773 127.809 707.773 128.512C707.773 129.254 707.629 129.918 707.34 130.504C707.051 131.09 706.633 131.586 706.086 131.992C705.539 132.398 704.887 132.707 704.129 132.918C703.371 133.129 702.523 133.234 701.586 133.234C700.742 133.234 699.91 133.125 699.09 132.906C698.27 132.68 697.523 132.34 696.852 131.887C696.188 131.434 695.656 130.855 695.258 130.152C694.859 129.449 694.66 128.617 694.66 127.656H698.188C698.188 128.188 698.27 128.637 698.434 129.004C698.598 129.371 698.828 129.668 699.125 129.895C699.43 130.121 699.789 130.285 700.203 130.387C700.625 130.488 701.086 130.539 701.586 130.539C702.195 130.539 702.695 130.453 703.086 130.281C703.484 130.109 703.777 129.871 703.965 129.566C704.16 129.262 704.258 128.918 704.258 128.535ZM712.508 115.938L716.07 123.719L719.633 115.938H723.465L717.852 126.789V133H714.289V126.789L708.664 115.938H712.508ZM726.629 115.938H729.605L733.988 128.465L738.371 115.938H741.348L735.184 133H732.793L726.629 115.938ZM725.023 115.938H727.988L728.527 128.148V133H725.023V115.938ZM739.988 115.938H742.965V133H739.449V128.148L739.988 115.938ZM755.938 127.34H759.441C759.371 128.488 759.055 129.508 758.492 130.398C757.938 131.289 757.16 131.984 756.16 132.484C755.168 132.984 753.973 133.234 752.574 133.234C751.48 133.234 750.5 133.047 749.633 132.672C748.766 132.289 748.023 131.742 747.406 131.031C746.797 130.32 746.332 129.461 746.012 128.453C745.691 127.445 745.531 126.316 745.531 125.066V123.883C745.531 122.633 745.695 121.504 746.023 120.496C746.359 119.48 746.836 118.617 747.453 117.906C748.078 117.195 748.824 116.648 749.691 116.266C750.559 115.883 751.527 115.691 752.598 115.691C754.02 115.691 755.219 115.949 756.195 116.465C757.18 116.98 757.941 117.691 758.48 118.598C759.027 119.504 759.355 120.535 759.465 121.691H755.949C755.91 121.004 755.773 120.422 755.539 119.945C755.305 119.461 754.949 119.098 754.473 118.855C754.004 118.605 753.379 118.48 752.598 118.48C752.012 118.48 751.5 118.59 751.062 118.809C750.625 119.027 750.258 119.359 749.961 119.805C749.664 120.25 749.441 120.812 749.293 121.492C749.152 122.164 749.082 122.953 749.082 123.859V125.066C749.082 125.949 749.148 126.727 749.281 127.398C749.414 128.062 749.617 128.625 749.891 129.086C750.172 129.539 750.531 129.883 750.969 130.117C751.414 130.344 751.949 130.457 752.574 130.457C753.309 130.457 753.914 130.34 754.391 130.105C754.867 129.871 755.23 129.523 755.48 129.062C755.738 128.602 755.891 128.027 755.938 127.34ZM771.02 130.469L775.637 134.125L773.422 136.047L768.875 132.391L771.02 130.469ZM775.754 124.07V124.879C775.754 126.176 775.578 127.34 775.227 128.371C774.883 129.402 774.387 130.281 773.738 131.008C773.09 131.727 772.324 132.277 771.441 132.66C770.559 133.043 769.578 133.234 768.5 133.234C767.43 133.234 766.449 133.043 765.559 132.66C764.668 132.277 763.898 131.727 763.25 131.008C762.602 130.281 762.098 129.402 761.738 128.371C761.387 127.34 761.211 126.176 761.211 124.879V124.07C761.211 122.766 761.387 121.602 761.738 120.578C762.098 119.547 762.598 118.668 763.238 117.941C763.879 117.215 764.645 116.66 765.535 116.277C766.426 115.895 767.406 115.703 768.477 115.703C769.555 115.703 770.535 115.895 771.418 116.277C772.309 116.66 773.078 117.215 773.727 117.941C774.375 118.668 774.875 119.547 775.227 120.578C775.578 121.602 775.754 122.766 775.754 124.07ZM772.203 124.879V124.047C772.203 123.141 772.117 122.344 771.945 121.656C771.781 120.969 771.539 120.391 771.219 119.922C770.906 119.453 770.52 119.102 770.059 118.867C769.598 118.625 769.07 118.504 768.477 118.504C767.883 118.504 767.355 118.625 766.895 118.867C766.434 119.102 766.047 119.453 765.734 119.922C765.422 120.391 765.184 120.969 765.02 121.656C764.855 122.344 764.773 123.141 764.773 124.047V124.879C764.773 125.777 764.855 126.574 765.02 127.27C765.184 127.957 765.422 128.539 765.734 129.016C766.055 129.484 766.445 129.84 766.906 130.082C767.375 130.324 767.906 130.445 768.5 130.445C769.094 130.445 769.617 130.324 770.07 130.082C770.531 129.84 770.918 129.484 771.23 129.016C771.551 128.539 771.793 127.957 771.957 127.27C772.121 126.574 772.203 125.777 772.203 124.879Z" fill="black"/>
<path d="M620.978 363.912H621.976C621.976 364.628 621.771 365.165 621.36 365.525C620.955 365.881 620.403 366.059 619.706 366.059C619.223 366.059 618.804 365.947 618.448 365.724C618.097 365.5 617.824 365.19 617.628 364.794C617.437 364.397 617.341 363.937 617.341 363.413V362.627C617.341 362.103 617.437 361.643 617.628 361.246C617.824 360.85 618.097 360.54 618.448 360.316C618.804 360.093 619.223 359.981 619.706 359.981C620.403 359.981 620.957 360.159 621.367 360.515C621.777 360.87 621.982 361.406 621.982 362.121H620.984C620.984 361.67 620.875 361.346 620.656 361.15C620.442 360.954 620.125 360.856 619.706 360.856C619.405 360.856 619.152 360.932 618.947 361.082C618.742 361.232 618.587 361.442 618.482 361.711C618.378 361.975 618.325 362.278 618.325 362.62V363.413C618.325 363.759 618.378 364.067 618.482 364.336C618.587 364.6 618.742 364.808 618.947 364.958C619.152 365.108 619.405 365.184 619.706 365.184C620.125 365.184 620.442 365.086 620.656 364.89C620.87 364.694 620.978 364.368 620.978 363.912ZM615.734 363.017C615.734 363.623 615.839 364.188 616.049 364.712C616.258 365.236 616.55 365.694 616.924 366.086C617.298 366.478 617.73 366.783 618.223 367.002C618.715 367.221 619.241 367.33 619.802 367.33C620.362 367.33 620.886 367.221 621.374 367.002C621.866 366.783 622.297 366.478 622.666 366.086C623.04 365.694 623.331 365.236 623.541 364.712C623.751 364.188 623.855 363.623 623.855 363.017C623.855 362.406 623.751 361.841 623.541 361.321C623.331 360.802 623.04 360.348 622.666 359.961C622.297 359.569 621.866 359.266 621.374 359.052C620.886 358.833 620.362 358.724 619.802 358.724C619.241 358.724 618.715 358.833 618.223 359.052C617.73 359.266 617.298 359.569 616.924 359.961C616.55 360.348 616.258 360.802 616.049 361.321C615.839 361.841 615.734 362.406 615.734 363.017ZM614.948 363.017C614.948 362.292 615.074 361.62 615.324 361C615.575 360.38 615.924 359.84 616.37 359.38C616.817 358.915 617.332 358.555 617.915 358.3C618.503 358.04 619.132 357.91 619.802 357.91C620.472 357.91 621.098 358.04 621.682 358.3C622.27 358.555 622.785 358.915 623.227 359.38C623.673 359.84 624.022 360.38 624.272 361C624.523 361.62 624.648 362.292 624.648 363.017C624.648 363.741 624.523 364.413 624.272 365.033C624.022 365.653 623.673 366.198 623.227 366.667C622.785 367.132 622.27 367.494 621.682 367.754C621.098 368.014 620.472 368.144 619.802 368.144C619.132 368.144 618.503 368.014 617.915 367.754C617.332 367.494 616.817 367.132 616.37 366.667C615.924 366.198 615.575 365.653 615.324 365.033C615.074 364.413 614.948 363.741 614.948 363.017ZM636.146 366.961V368H629.632V367.091L632.893 363.461C633.294 363.014 633.604 362.636 633.822 362.326C634.046 362.012 634.201 361.731 634.287 361.485C634.378 361.235 634.424 360.979 634.424 360.72C634.424 360.392 634.355 360.095 634.219 359.831C634.087 359.562 633.891 359.348 633.631 359.188C633.371 359.029 633.057 358.949 632.688 358.949C632.245 358.949 631.876 359.036 631.58 359.209C631.288 359.378 631.07 359.615 630.924 359.92C630.778 360.225 630.705 360.576 630.705 360.973H629.44C629.44 360.412 629.563 359.899 629.81 359.435C630.056 358.97 630.42 358.601 630.903 358.327C631.386 358.049 631.981 357.91 632.688 357.91C633.316 357.91 633.854 358.022 634.301 358.245C634.747 358.464 635.089 358.774 635.326 359.175C635.568 359.571 635.688 360.036 635.688 360.569C635.688 360.861 635.638 361.157 635.538 361.458C635.442 361.754 635.308 362.05 635.135 362.347C634.966 362.643 634.768 362.935 634.54 363.222C634.317 363.509 634.077 363.791 633.822 364.069L631.156 366.961H636.146ZM643.748 362.23V363.748C643.748 364.564 643.675 365.252 643.529 365.812C643.383 366.373 643.174 366.824 642.9 367.166C642.627 367.508 642.297 367.756 641.909 367.911C641.526 368.062 641.093 368.137 640.61 368.137C640.228 368.137 639.874 368.089 639.551 367.993C639.227 367.897 638.936 367.745 638.676 367.535C638.421 367.321 638.202 367.043 638.02 366.701C637.837 366.359 637.698 365.945 637.603 365.457C637.507 364.969 637.459 364.4 637.459 363.748V362.23C637.459 361.415 637.532 360.731 637.678 360.18C637.828 359.628 638.04 359.186 638.313 358.854C638.587 358.516 638.915 358.275 639.298 358.129C639.685 357.983 640.118 357.91 640.597 357.91C640.984 357.91 641.34 357.958 641.663 358.054C641.991 358.145 642.283 358.293 642.538 358.498C642.793 358.699 643.01 358.967 643.188 359.305C643.37 359.637 643.509 360.045 643.604 360.528C643.7 361.011 643.748 361.579 643.748 362.23ZM642.477 363.953V362.019C642.477 361.572 642.449 361.18 642.395 360.843C642.344 360.501 642.269 360.209 642.169 359.968C642.069 359.726 641.941 359.53 641.786 359.38C641.636 359.229 641.46 359.12 641.26 359.052C641.064 358.979 640.843 358.942 640.597 358.942C640.296 358.942 640.029 358.999 639.797 359.113C639.564 359.223 639.368 359.398 639.209 359.64C639.054 359.881 638.936 360.198 638.854 360.59C638.771 360.982 638.73 361.458 638.73 362.019V363.953C638.73 364.4 638.756 364.794 638.806 365.136C638.86 365.478 638.94 365.774 639.045 366.024C639.15 366.271 639.277 366.473 639.428 366.633C639.578 366.792 639.751 366.911 639.947 366.988C640.148 367.061 640.369 367.098 640.61 367.098C640.92 367.098 641.191 367.038 641.424 366.92C641.656 366.801 641.85 366.617 642.005 366.366C642.164 366.111 642.283 365.785 642.36 365.389C642.438 364.988 642.477 364.509 642.477 363.953ZM651.896 366.961V368H645.382V367.091L648.643 363.461C649.044 363.014 649.354 362.636 649.572 362.326C649.796 362.012 649.951 361.731 650.037 361.485C650.128 361.235 650.174 360.979 650.174 360.72C650.174 360.392 650.105 360.095 649.969 359.831C649.837 359.562 649.641 359.348 649.381 359.188C649.121 359.029 648.807 358.949 648.438 358.949C647.995 358.949 647.626 359.036 647.33 359.209C647.038 359.378 646.82 359.615 646.674 359.92C646.528 360.225 646.455 360.576 646.455 360.973H645.19C645.19 360.412 645.313 359.899 645.56 359.435C645.806 358.97 646.17 358.601 646.653 358.327C647.136 358.049 647.731 357.91 648.438 357.91C649.066 357.91 649.604 358.022 650.051 358.245C650.497 358.464 650.839 358.774 651.076 359.175C651.318 359.571 651.438 360.036 651.438 360.569C651.438 360.861 651.388 361.157 651.288 361.458C651.192 361.754 651.058 362.05 650.885 362.347C650.716 362.643 650.518 362.935 650.29 363.222C650.067 363.509 649.827 363.791 649.572 364.069L646.906 366.961H651.896ZM657.406 357.992V368H656.142V359.571L653.592 360.501V359.359L657.208 357.992H657.406ZM673.888 362.511V363.55H664.755V362.511H673.888ZM685.529 366.961V368H679.015V367.091L682.275 363.461C682.676 363.014 682.986 362.636 683.205 362.326C683.428 362.012 683.583 361.731 683.67 361.485C683.761 361.235 683.807 360.979 683.807 360.72C683.807 360.392 683.738 360.095 683.602 359.831C683.469 359.562 683.273 359.348 683.014 359.188C682.754 359.029 682.439 358.949 682.07 358.949C681.628 358.949 681.259 359.036 680.963 359.209C680.671 359.378 680.452 359.615 680.307 359.92C680.161 360.225 680.088 360.576 680.088 360.973H678.823C678.823 360.412 678.946 359.899 679.192 359.435C679.438 358.97 679.803 358.601 680.286 358.327C680.769 358.049 681.364 357.91 682.07 357.91C682.699 357.91 683.237 358.022 683.684 358.245C684.13 358.464 684.472 358.774 684.709 359.175C684.951 359.571 685.071 360.036 685.071 360.569C685.071 360.861 685.021 361.157 684.921 361.458C684.825 361.754 684.691 362.05 684.518 362.347C684.349 362.643 684.151 362.935 683.923 363.222C683.7 363.509 683.46 363.791 683.205 364.069L680.539 366.961H685.529ZM693.131 362.23V363.748C693.131 364.564 693.058 365.252 692.912 365.812C692.766 366.373 692.557 366.824 692.283 367.166C692.01 367.508 691.679 367.756 691.292 367.911C690.909 368.062 690.476 368.137 689.993 368.137C689.61 368.137 689.257 368.089 688.934 367.993C688.61 367.897 688.318 367.745 688.059 367.535C687.803 367.321 687.585 367.043 687.402 366.701C687.22 366.359 687.081 365.945 686.985 365.457C686.89 364.969 686.842 364.4 686.842 363.748V362.23C686.842 361.415 686.915 360.731 687.061 360.18C687.211 359.628 687.423 359.186 687.696 358.854C687.97 358.516 688.298 358.275 688.681 358.129C689.068 357.983 689.501 357.91 689.979 357.91C690.367 357.91 690.722 357.958 691.046 358.054C691.374 358.145 691.666 358.293 691.921 358.498C692.176 358.699 692.393 358.967 692.57 359.305C692.753 359.637 692.892 360.045 692.987 360.528C693.083 361.011 693.131 361.579 693.131 362.23ZM691.859 363.953V362.019C691.859 361.572 691.832 361.18 691.777 360.843C691.727 360.501 691.652 360.209 691.552 359.968C691.451 359.726 691.324 359.53 691.169 359.38C691.019 359.229 690.843 359.12 690.643 359.052C690.447 358.979 690.226 358.942 689.979 358.942C689.679 358.942 689.412 358.999 689.18 359.113C688.947 359.223 688.751 359.398 688.592 359.64C688.437 359.881 688.318 360.198 688.236 360.59C688.154 360.982 688.113 361.458 688.113 362.019V363.953C688.113 364.4 688.138 364.794 688.188 365.136C688.243 365.478 688.323 365.774 688.428 366.024C688.533 366.271 688.66 366.473 688.811 366.633C688.961 366.792 689.134 366.911 689.33 366.988C689.531 367.061 689.752 367.098 689.993 367.098C690.303 367.098 690.574 367.038 690.807 366.92C691.039 366.801 691.233 366.617 691.388 366.366C691.547 366.111 691.666 365.785 691.743 365.389C691.821 364.988 691.859 364.509 691.859 363.953ZM701.279 366.961V368H694.765V367.091L698.025 363.461C698.426 363.014 698.736 362.636 698.955 362.326C699.178 362.012 699.333 361.731 699.42 361.485C699.511 361.235 699.557 360.979 699.557 360.72C699.557 360.392 699.488 360.095 699.352 359.831C699.219 359.562 699.023 359.348 698.764 359.188C698.504 359.029 698.189 358.949 697.82 358.949C697.378 358.949 697.009 359.036 696.713 359.209C696.421 359.378 696.202 359.615 696.057 359.92C695.911 360.225 695.838 360.576 695.838 360.973H694.573C694.573 360.412 694.696 359.899 694.942 359.435C695.188 358.97 695.553 358.601 696.036 358.327C696.519 358.049 697.114 357.91 697.82 357.91C698.449 357.91 698.987 358.022 699.434 358.245C699.88 358.464 700.222 358.774 700.459 359.175C700.701 359.571 700.821 360.036 700.821 360.569C700.821 360.861 700.771 361.157 700.671 361.458C700.575 361.754 700.441 362.05 700.268 362.347C700.099 362.643 699.901 362.935 699.673 363.222C699.45 363.509 699.21 363.791 698.955 364.069L696.289 366.961H701.279ZM709.154 366.961V368H702.64V367.091L705.9 363.461C706.301 363.014 706.611 362.636 706.83 362.326C707.053 362.012 707.208 361.731 707.295 361.485C707.386 361.235 707.432 360.979 707.432 360.72C707.432 360.392 707.363 360.095 707.227 359.831C707.094 359.562 706.898 359.348 706.639 359.188C706.379 359.029 706.064 358.949 705.695 358.949C705.253 358.949 704.884 359.036 704.588 359.209C704.296 359.378 704.077 359.615 703.932 359.92C703.786 360.225 703.713 360.576 703.713 360.973H702.448C702.448 360.412 702.571 359.899 702.817 359.435C703.063 358.97 703.428 358.601 703.911 358.327C704.394 358.049 704.989 357.91 705.695 357.91C706.324 357.91 706.862 358.022 707.309 358.245C707.755 358.464 708.097 358.774 708.334 359.175C708.576 359.571 708.696 360.036 708.696 360.569C708.696 360.861 708.646 361.157 708.546 361.458C708.45 361.754 708.316 362.05 708.143 362.347C707.974 362.643 707.776 362.935 707.548 363.222C707.325 363.509 707.085 363.791 706.83 364.069L704.164 366.961H709.154Z" fill="black"/>
<path d="M727.234 364.097H724.575V363.023H727.234C727.749 363.023 728.166 362.941 728.485 362.777C728.804 362.613 729.037 362.385 729.183 362.094C729.333 361.802 729.408 361.469 729.408 361.096C729.408 360.754 729.333 360.433 729.183 360.132C729.037 359.831 728.804 359.59 728.485 359.407C728.166 359.22 727.749 359.127 727.234 359.127H724.883V368H723.563V358.047H727.234C727.986 358.047 728.622 358.177 729.142 358.437C729.661 358.696 730.055 359.056 730.324 359.517C730.593 359.972 730.728 360.494 730.728 361.082C730.728 361.72 730.593 362.265 730.324 362.716C730.055 363.167 729.661 363.511 729.142 363.748C728.622 363.98 727.986 364.097 727.234 364.097ZM733.469 361.766V368H732.204V360.604H733.435L733.469 361.766ZM735.779 360.562L735.772 361.738C735.668 361.715 735.567 361.702 735.472 361.697C735.381 361.688 735.276 361.684 735.157 361.684C734.866 361.684 734.608 361.729 734.385 361.82C734.161 361.911 733.972 362.039 733.817 362.203C733.662 362.367 733.539 362.563 733.448 362.791C733.362 363.014 733.305 363.26 733.277 363.529L732.922 363.734C732.922 363.288 732.965 362.868 733.052 362.477C733.143 362.085 733.282 361.738 733.469 361.438C733.656 361.132 733.893 360.895 734.18 360.727C734.471 360.553 734.818 360.467 735.219 360.467C735.31 360.467 735.415 360.478 735.533 360.501C735.652 360.519 735.734 360.54 735.779 360.562ZM738.322 360.604V368H737.051V360.604H738.322ZM736.955 358.642C736.955 358.437 737.017 358.263 737.14 358.122C737.267 357.981 737.454 357.91 737.7 357.91C737.942 357.91 738.126 357.981 738.254 358.122C738.386 358.263 738.452 358.437 738.452 358.642C738.452 358.838 738.386 359.006 738.254 359.147C738.126 359.284 737.942 359.353 737.7 359.353C737.454 359.353 737.267 359.284 737.14 359.147C737.017 359.006 736.955 358.838 736.955 358.642ZM742.602 366.858L744.625 360.604H745.917L743.258 368H742.41L742.602 366.858ZM740.913 360.604L742.998 366.893L743.142 368H742.294L739.614 360.604H740.913ZM751.386 366.735V362.928C751.386 362.636 751.326 362.383 751.208 362.169C751.094 361.95 750.921 361.782 750.688 361.663C750.456 361.545 750.169 361.485 749.827 361.485C749.508 361.485 749.228 361.54 748.986 361.649C748.749 361.759 748.562 361.902 748.426 362.08C748.294 362.258 748.228 362.449 748.228 362.654H746.963C746.963 362.39 747.031 362.128 747.168 361.868C747.305 361.608 747.501 361.374 747.756 361.164C748.016 360.95 748.326 360.781 748.686 360.658C749.05 360.531 749.456 360.467 749.902 360.467C750.44 360.467 750.914 360.558 751.324 360.74C751.739 360.923 752.062 361.198 752.295 361.567C752.532 361.932 752.65 362.39 752.65 362.941V366.387C752.65 366.633 752.671 366.895 752.712 367.173C752.757 367.451 752.824 367.69 752.91 367.891V368H751.591C751.527 367.854 751.477 367.66 751.44 367.419C751.404 367.173 751.386 366.945 751.386 366.735ZM751.604 363.516L751.618 364.404H750.34C749.98 364.404 749.659 364.434 749.376 364.493C749.093 364.548 748.856 364.632 748.665 364.746C748.474 364.86 748.328 365.004 748.228 365.177C748.127 365.345 748.077 365.544 748.077 365.771C748.077 366.004 748.13 366.216 748.234 366.407C748.339 366.599 748.496 366.751 748.706 366.865C748.92 366.975 749.182 367.029 749.492 367.029C749.88 367.029 750.221 366.947 750.518 366.783C750.814 366.619 751.049 366.419 751.222 366.182C751.399 365.945 751.495 365.715 751.509 365.491L752.049 366.1C752.017 366.291 751.93 366.503 751.789 366.735C751.648 366.968 751.459 367.191 751.222 367.405C750.989 367.615 750.711 367.79 750.388 367.932C750.069 368.068 749.709 368.137 749.308 368.137C748.806 368.137 748.367 368.039 747.988 367.843C747.615 367.647 747.323 367.385 747.113 367.057C746.908 366.724 746.806 366.353 746.806 365.942C746.806 365.546 746.883 365.197 747.038 364.896C747.193 364.591 747.416 364.338 747.708 364.138C748 363.933 748.351 363.778 748.761 363.673C749.171 363.568 749.629 363.516 750.135 363.516H751.604ZM757.6 367.098C757.9 367.098 758.178 367.036 758.434 366.913C758.689 366.79 758.898 366.621 759.062 366.407C759.227 366.188 759.32 365.94 759.343 365.662H760.546C760.523 366.1 760.375 366.507 760.102 366.886C759.833 367.259 759.479 367.562 759.042 367.795C758.604 368.023 758.124 368.137 757.6 368.137C757.044 368.137 756.558 368.039 756.144 367.843C755.733 367.647 755.392 367.378 755.118 367.036C754.849 366.694 754.646 366.302 754.51 365.86C754.378 365.414 754.312 364.942 754.312 364.445V364.158C754.312 363.661 754.378 363.192 754.51 362.75C754.646 362.303 754.849 361.909 755.118 361.567C755.392 361.226 755.733 360.957 756.144 360.761C756.558 360.565 757.044 360.467 757.6 360.467C758.178 360.467 758.684 360.585 759.117 360.822C759.55 361.055 759.89 361.374 760.136 361.779C760.386 362.18 760.523 362.636 760.546 363.146H759.343C759.32 362.841 759.233 362.565 759.083 362.319C758.937 362.073 758.737 361.877 758.481 361.731C758.231 361.581 757.937 361.506 757.6 361.506C757.212 361.506 756.886 361.583 756.622 361.738C756.362 361.889 756.155 362.094 756 362.354C755.85 362.609 755.74 362.894 755.672 363.208C755.608 363.518 755.576 363.835 755.576 364.158V364.445C755.576 364.769 755.608 365.088 755.672 365.402C755.736 365.717 755.843 366.002 755.993 366.257C756.148 366.512 756.355 366.717 756.615 366.872C756.88 367.022 757.208 367.098 757.6 367.098ZM764.046 367.234L766.104 360.604H767.457L764.49 369.142C764.422 369.324 764.331 369.52 764.217 369.729C764.107 369.944 763.966 370.146 763.793 370.338C763.62 370.529 763.41 370.684 763.164 370.803C762.923 370.926 762.633 370.987 762.296 370.987C762.196 370.987 762.068 370.974 761.913 370.946C761.758 370.919 761.649 370.896 761.585 370.878L761.578 369.853C761.615 369.857 761.672 369.862 761.749 369.866C761.831 369.875 761.888 369.88 761.92 369.88C762.207 369.88 762.451 369.841 762.651 369.764C762.852 369.691 763.021 369.565 763.157 369.388C763.299 369.215 763.419 368.975 763.52 368.67L764.046 367.234ZM762.535 360.604L764.456 366.346L764.784 367.679L763.875 368.144L761.154 360.604H762.535ZM781.225 362.511V363.55H772.092V362.511H781.225ZM790.077 358.047V368H788.778V358.047H790.077ZM793.276 358.047V359.127H785.586V358.047H793.276ZM796.947 368.137C796.432 368.137 795.965 368.05 795.546 367.877C795.131 367.699 794.773 367.451 794.473 367.132C794.176 366.813 793.949 366.435 793.789 365.997C793.63 365.56 793.55 365.081 793.55 364.562V364.274C793.55 363.673 793.639 363.137 793.816 362.668C793.994 362.194 794.236 361.793 794.541 361.465C794.846 361.137 795.193 360.888 795.58 360.72C795.967 360.551 796.368 360.467 796.783 360.467C797.312 360.467 797.768 360.558 798.15 360.74C798.538 360.923 798.854 361.178 799.101 361.506C799.347 361.829 799.529 362.212 799.647 362.654C799.766 363.092 799.825 363.57 799.825 364.09V364.657H794.302V363.625H798.561V363.529C798.542 363.201 798.474 362.882 798.355 362.572C798.242 362.262 798.059 362.007 797.809 361.807C797.558 361.606 797.216 361.506 796.783 361.506C796.496 361.506 796.232 361.567 795.99 361.69C795.749 361.809 795.541 361.987 795.368 362.224C795.195 362.461 795.061 362.75 794.965 363.092C794.869 363.434 794.821 363.828 794.821 364.274V364.562C794.821 364.912 794.869 365.243 794.965 365.553C795.065 365.858 795.209 366.127 795.396 366.359C795.587 366.592 795.817 366.774 796.086 366.906C796.359 367.038 796.669 367.104 797.016 367.104C797.462 367.104 797.84 367.013 798.15 366.831C798.46 366.649 798.731 366.405 798.964 366.1L799.729 366.708C799.57 366.95 799.367 367.18 799.121 367.398C798.875 367.617 798.572 367.795 798.212 367.932C797.856 368.068 797.435 368.137 796.947 368.137ZM802.566 361.766V368H801.302V360.604H802.532L802.566 361.766ZM804.877 360.562L804.87 361.738C804.765 361.715 804.665 361.702 804.569 361.697C804.478 361.688 804.373 361.684 804.255 361.684C803.963 361.684 803.706 361.729 803.482 361.82C803.259 361.911 803.07 362.039 802.915 362.203C802.76 362.367 802.637 362.563 802.546 362.791C802.459 363.014 802.402 363.26 802.375 363.529L802.02 363.734C802.02 363.288 802.063 362.868 802.149 362.477C802.241 362.085 802.38 361.738 802.566 361.438C802.753 361.132 802.99 360.895 803.277 360.727C803.569 360.553 803.915 360.467 804.316 360.467C804.408 360.467 804.512 360.478 804.631 360.501C804.749 360.519 804.831 360.54 804.877 360.562ZM807.304 362.073V368H806.032V360.604H807.235L807.304 362.073ZM807.044 364.021L806.456 364.001C806.461 363.495 806.527 363.028 806.654 362.6C806.782 362.167 806.971 361.791 807.222 361.472C807.472 361.153 807.785 360.907 808.158 360.733C808.532 360.556 808.965 360.467 809.457 360.467C809.803 360.467 810.122 360.517 810.414 360.617C810.706 360.713 810.959 360.866 811.173 361.075C811.387 361.285 811.553 361.554 811.672 361.882C811.79 362.21 811.85 362.606 811.85 363.071V368H810.585V363.133C810.585 362.745 810.519 362.436 810.387 362.203C810.259 361.971 810.077 361.802 809.84 361.697C809.603 361.588 809.325 361.533 809.006 361.533C808.632 361.533 808.32 361.599 808.069 361.731C807.819 361.864 807.618 362.046 807.468 362.278C807.317 362.511 807.208 362.777 807.14 363.078C807.076 363.374 807.044 363.689 807.044 364.021ZM811.836 363.324L810.988 363.584C810.993 363.178 811.059 362.789 811.187 362.415C811.319 362.041 811.508 361.709 811.754 361.417C812.005 361.125 812.312 360.895 812.677 360.727C813.041 360.553 813.458 360.467 813.928 360.467C814.324 360.467 814.675 360.519 814.98 360.624C815.29 360.729 815.55 360.891 815.76 361.109C815.974 361.324 816.136 361.599 816.245 361.937C816.354 362.274 816.409 362.675 816.409 363.14V368H815.138V363.126C815.138 362.711 815.072 362.39 814.939 362.162C814.812 361.93 814.63 361.768 814.393 361.677C814.16 361.581 813.882 361.533 813.559 361.533C813.281 361.533 813.035 361.581 812.82 361.677C812.606 361.772 812.426 361.905 812.28 362.073C812.134 362.237 812.023 362.426 811.945 362.641C811.872 362.855 811.836 363.083 811.836 363.324ZM822.63 366.038C822.63 365.856 822.589 365.687 822.507 365.532C822.429 365.373 822.268 365.229 822.021 365.102C821.78 364.969 821.415 364.855 820.928 364.76C820.518 364.673 820.146 364.571 819.813 364.452C819.485 364.334 819.205 364.19 818.973 364.021C818.745 363.853 818.569 363.655 818.446 363.427C818.323 363.199 818.262 362.932 818.262 362.627C818.262 362.335 818.326 362.06 818.453 361.8C818.585 361.54 818.77 361.31 819.007 361.109C819.248 360.909 819.538 360.752 819.875 360.638C820.212 360.524 820.588 360.467 821.003 360.467C821.595 360.467 822.101 360.572 822.521 360.781C822.94 360.991 823.261 361.271 823.484 361.622C823.708 361.968 823.819 362.354 823.819 362.777H822.555C822.555 362.572 822.493 362.374 822.37 362.183C822.252 361.987 822.076 361.825 821.844 361.697C821.616 361.57 821.336 361.506 821.003 361.506C820.652 361.506 820.367 361.561 820.148 361.67C819.934 361.775 819.777 361.909 819.677 362.073C819.581 362.237 819.533 362.41 819.533 362.593C819.533 362.729 819.556 362.853 819.602 362.962C819.652 363.067 819.738 363.165 819.861 363.256C819.984 363.342 820.158 363.424 820.381 363.502C820.604 363.579 820.889 363.657 821.235 363.734C821.841 363.871 822.34 364.035 822.732 364.227C823.124 364.418 823.416 364.653 823.607 364.931C823.799 365.209 823.895 365.546 823.895 365.942C823.895 366.266 823.826 366.562 823.689 366.831C823.557 367.1 823.364 367.332 823.108 367.528C822.858 367.72 822.557 367.87 822.206 367.979C821.86 368.084 821.47 368.137 821.037 368.137C820.385 368.137 819.834 368.021 819.383 367.788C818.932 367.556 818.59 367.255 818.357 366.886C818.125 366.517 818.009 366.127 818.009 365.717H819.28C819.299 366.063 819.399 366.339 819.581 366.544C819.763 366.744 819.987 366.888 820.251 366.975C820.515 367.057 820.777 367.098 821.037 367.098C821.383 367.098 821.673 367.052 821.905 366.961C822.142 366.87 822.322 366.744 822.445 366.585C822.568 366.425 822.63 366.243 822.63 366.038Z" fill="black"/>
<path d="M220 188H1220" stroke="black"/>
<path d="M269.526 122.101V123.7H264.331V122.101H269.526ZM264.939 118.047V128H262.889V118.047H264.939ZM270.989 118.047V128H268.945V118.047H270.989ZM272.336 124.377V124.233C272.336 123.691 272.413 123.192 272.568 122.736C272.723 122.276 272.949 121.877 273.245 121.54C273.541 121.203 273.906 120.941 274.339 120.754C274.772 120.562 275.269 120.467 275.829 120.467C276.39 120.467 276.889 120.562 277.326 120.754C277.764 120.941 278.131 121.203 278.427 121.54C278.728 121.877 278.955 122.276 279.11 122.736C279.265 123.192 279.343 123.691 279.343 124.233V124.377C279.343 124.915 279.265 125.414 279.11 125.874C278.955 126.33 278.728 126.729 278.427 127.07C278.131 127.408 277.766 127.67 277.333 127.856C276.9 128.043 276.403 128.137 275.843 128.137C275.282 128.137 274.783 128.043 274.346 127.856C273.913 127.67 273.546 127.408 273.245 127.07C272.949 126.729 272.723 126.33 272.568 125.874C272.413 125.414 272.336 124.915 272.336 124.377ZM274.305 124.233V124.377C274.305 124.687 274.332 124.976 274.387 125.245C274.441 125.514 274.528 125.751 274.646 125.956C274.77 126.157 274.929 126.314 275.125 126.428C275.321 126.542 275.56 126.599 275.843 126.599C276.116 126.599 276.351 126.542 276.547 126.428C276.743 126.314 276.9 126.157 277.019 125.956C277.137 125.751 277.224 125.514 277.278 125.245C277.338 124.976 277.367 124.687 277.367 124.377V124.233C277.367 123.933 277.338 123.65 277.278 123.386C277.224 123.117 277.135 122.88 277.012 122.675C276.893 122.465 276.736 122.301 276.54 122.183C276.344 122.064 276.107 122.005 275.829 122.005C275.551 122.005 275.314 122.064 275.118 122.183C274.927 122.301 274.77 122.465 274.646 122.675C274.528 122.88 274.441 123.117 274.387 123.386C274.332 123.65 274.305 123.933 274.305 124.233ZM282.665 126.086L284.203 120.604H285.454L285.051 122.757L283.513 128H282.467L282.665 126.086ZM281.886 120.604L282.986 126.079L283.089 128H281.858L279.985 120.604H281.886ZM286.862 125.99L287.936 120.604H289.843L287.97 128H286.746L286.862 125.99ZM285.625 120.604L287.156 126.045L287.368 128H286.315L284.777 122.764L284.388 120.604H285.625ZM297.943 120.604V121.998H293.637V120.604H297.943ZM294.703 118.778H296.672V125.771C296.672 125.986 296.699 126.15 296.754 126.264C296.813 126.378 296.9 126.457 297.014 126.503C297.128 126.544 297.271 126.564 297.444 126.564C297.567 126.564 297.677 126.56 297.772 126.551C297.873 126.537 297.957 126.523 298.025 126.51L298.032 127.959C297.864 128.014 297.681 128.057 297.485 128.089C297.289 128.121 297.073 128.137 296.836 128.137C296.403 128.137 296.025 128.066 295.701 127.925C295.382 127.779 295.136 127.547 294.963 127.228C294.79 126.909 294.703 126.489 294.703 125.97V118.778ZM298.572 124.377V124.233C298.572 123.691 298.65 123.192 298.805 122.736C298.96 122.276 299.185 121.877 299.481 121.54C299.778 121.203 300.142 120.941 300.575 120.754C301.008 120.562 301.505 120.467 302.065 120.467C302.626 120.467 303.125 120.562 303.562 120.754C304 120.941 304.367 121.203 304.663 121.54C304.964 121.877 305.192 122.276 305.347 122.736C305.502 123.192 305.579 123.691 305.579 124.233V124.377C305.579 124.915 305.502 125.414 305.347 125.874C305.192 126.33 304.964 126.729 304.663 127.07C304.367 127.408 304.002 127.67 303.569 127.856C303.136 128.043 302.64 128.137 302.079 128.137C301.519 128.137 301.02 128.043 300.582 127.856C300.149 127.67 299.782 127.408 299.481 127.07C299.185 126.729 298.96 126.33 298.805 125.874C298.65 125.414 298.572 124.915 298.572 124.377ZM300.541 124.233V124.377C300.541 124.687 300.568 124.976 300.623 125.245C300.678 125.514 300.764 125.751 300.883 125.956C301.006 126.157 301.165 126.314 301.361 126.428C301.557 126.542 301.797 126.599 302.079 126.599C302.353 126.599 302.587 126.542 302.783 126.428C302.979 126.314 303.136 126.157 303.255 125.956C303.373 125.751 303.46 125.514 303.515 125.245C303.574 124.976 303.604 124.687 303.604 124.377V124.233C303.604 123.933 303.574 123.65 303.515 123.386C303.46 123.117 303.371 122.88 303.248 122.675C303.13 122.465 302.972 122.301 302.776 122.183C302.58 122.064 302.343 122.005 302.065 122.005C301.787 122.005 301.55 122.064 301.354 122.183C301.163 122.301 301.006 122.465 300.883 122.675C300.764 122.88 300.678 123.117 300.623 123.386C300.568 123.65 300.541 123.933 300.541 124.233ZM314.65 126.229V120.604H316.619V128H314.767L314.65 126.229ZM314.869 124.712L315.45 124.698C315.45 125.19 315.393 125.648 315.279 126.072C315.165 126.492 314.994 126.856 314.767 127.166C314.539 127.471 314.252 127.711 313.905 127.884C313.559 128.052 313.151 128.137 312.682 128.137C312.322 128.137 311.989 128.087 311.684 127.986C311.383 127.882 311.123 127.72 310.904 127.501C310.69 127.278 310.521 126.993 310.398 126.646C310.28 126.296 310.221 125.874 310.221 125.382V120.604H312.189V125.396C312.189 125.614 312.215 125.799 312.265 125.949C312.319 126.1 312.395 126.223 312.49 126.318C312.586 126.414 312.698 126.482 312.825 126.523C312.957 126.564 313.103 126.585 313.263 126.585C313.668 126.585 313.987 126.503 314.22 126.339C314.457 126.175 314.623 125.951 314.719 125.669C314.819 125.382 314.869 125.063 314.869 124.712ZM322.122 125.956C322.122 125.815 322.081 125.687 321.999 125.573C321.917 125.459 321.764 125.354 321.541 125.259C321.322 125.159 321.006 125.067 320.591 124.985C320.217 124.903 319.868 124.801 319.545 124.678C319.226 124.55 318.948 124.397 318.711 124.22C318.479 124.042 318.296 123.832 318.164 123.591C318.032 123.345 317.966 123.064 317.966 122.75C317.966 122.44 318.032 122.148 318.164 121.875C318.301 121.602 318.494 121.36 318.745 121.15C319 120.936 319.31 120.77 319.675 120.651C320.044 120.528 320.459 120.467 320.919 120.467C321.562 120.467 322.113 120.569 322.573 120.774C323.038 120.979 323.394 121.262 323.64 121.622C323.89 121.978 324.016 122.383 324.016 122.839H322.047C322.047 122.647 322.006 122.477 321.924 122.326C321.846 122.171 321.723 122.05 321.555 121.964C321.391 121.873 321.176 121.827 320.912 121.827C320.693 121.827 320.504 121.866 320.345 121.943C320.185 122.016 320.062 122.117 319.976 122.244C319.894 122.367 319.853 122.504 319.853 122.654C319.853 122.768 319.875 122.871 319.921 122.962C319.971 123.049 320.051 123.128 320.16 123.201C320.27 123.274 320.411 123.342 320.584 123.406C320.762 123.465 320.98 123.52 321.24 123.57C321.773 123.68 322.25 123.823 322.669 124.001C323.088 124.174 323.421 124.411 323.667 124.712C323.913 125.008 324.036 125.398 324.036 125.881C324.036 126.209 323.963 126.51 323.817 126.783C323.672 127.057 323.462 127.296 323.188 127.501C322.915 127.701 322.587 127.859 322.204 127.973C321.826 128.082 321.4 128.137 320.926 128.137C320.238 128.137 319.654 128.014 319.176 127.768C318.702 127.521 318.342 127.209 318.096 126.831C317.854 126.448 317.733 126.056 317.733 125.655H319.6C319.609 125.924 319.677 126.141 319.805 126.305C319.937 126.469 320.103 126.587 320.304 126.66C320.509 126.733 320.73 126.77 320.967 126.77C321.222 126.77 321.434 126.735 321.603 126.667C321.771 126.594 321.899 126.498 321.985 126.38C322.076 126.257 322.122 126.116 322.122 125.956ZM328.719 128.137C328.145 128.137 327.63 128.046 327.174 127.863C326.718 127.676 326.331 127.419 326.012 127.091C325.697 126.763 325.456 126.382 325.287 125.949C325.118 125.512 325.034 125.047 325.034 124.555V124.281C325.034 123.721 325.114 123.208 325.273 122.743C325.433 122.278 325.661 121.875 325.957 121.533C326.258 121.191 326.622 120.929 327.051 120.747C327.479 120.56 327.962 120.467 328.5 120.467C329.024 120.467 329.489 120.553 329.895 120.727C330.3 120.9 330.64 121.146 330.913 121.465C331.191 121.784 331.401 122.167 331.542 122.613C331.683 123.055 331.754 123.548 331.754 124.09V124.91H325.875V123.598H329.819V123.447C329.819 123.174 329.769 122.93 329.669 122.716C329.573 122.497 329.427 122.324 329.231 122.196C329.035 122.069 328.785 122.005 328.479 122.005C328.22 122.005 327.996 122.062 327.81 122.176C327.623 122.29 327.47 122.449 327.352 122.654C327.238 122.859 327.151 123.101 327.092 123.379C327.037 123.652 327.01 123.953 327.01 124.281V124.555C327.01 124.851 327.051 125.124 327.133 125.375C327.219 125.626 327.34 125.842 327.495 126.024C327.655 126.207 327.846 126.348 328.069 126.448C328.297 126.549 328.555 126.599 328.842 126.599C329.197 126.599 329.528 126.53 329.833 126.394C330.143 126.252 330.41 126.04 330.633 125.758L331.59 126.797C331.435 127.02 331.223 127.234 330.954 127.439C330.69 127.645 330.371 127.813 329.997 127.945C329.623 128.073 329.197 128.137 328.719 128.137ZM336.231 124.958H334.488C334.493 124.548 334.525 124.195 334.584 123.898C334.648 123.598 334.755 123.326 334.905 123.085C335.06 122.843 335.265 122.604 335.521 122.367C335.735 122.176 335.922 121.993 336.081 121.82C336.241 121.647 336.366 121.469 336.457 121.287C336.548 121.1 336.594 120.893 336.594 120.665C336.594 120.401 336.553 120.182 336.471 120.009C336.393 119.831 336.275 119.697 336.115 119.605C335.96 119.514 335.764 119.469 335.527 119.469C335.331 119.469 335.149 119.512 334.98 119.599C334.812 119.681 334.673 119.808 334.563 119.981C334.459 120.155 334.404 120.382 334.399 120.665H332.417C332.431 120.041 332.574 119.526 332.848 119.12C333.126 118.71 333.497 118.407 333.962 118.211C334.427 118.01 334.949 117.91 335.527 117.91C336.165 117.91 336.712 118.015 337.168 118.225C337.624 118.43 337.972 118.733 338.214 119.134C338.455 119.53 338.576 120.013 338.576 120.583C338.576 120.979 338.499 121.333 338.344 121.643C338.189 121.948 337.986 122.233 337.735 122.497C337.485 122.761 337.209 123.035 336.908 123.317C336.648 123.55 336.471 123.794 336.375 124.049C336.284 124.304 336.236 124.607 336.231 124.958ZM334.283 127.07C334.283 126.779 334.383 126.537 334.584 126.346C334.785 126.15 335.053 126.052 335.391 126.052C335.723 126.052 335.99 126.15 336.19 126.346C336.396 126.537 336.498 126.779 336.498 127.07C336.498 127.353 336.396 127.592 336.19 127.788C335.99 127.984 335.723 128.082 335.391 128.082C335.053 128.082 334.785 127.984 334.584 127.788C334.383 127.592 334.283 127.353 334.283 127.07Z" fill="black"/>
<path d="M378.939 118.047V128H376.889V118.047H378.939ZM382.904 122.299V123.898H378.379V122.299H382.904ZM383.383 118.047V119.653H378.379V118.047H383.383ZM387.703 128.137C387.129 128.137 386.614 128.046 386.158 127.863C385.702 127.676 385.315 127.419 384.996 127.091C384.682 126.763 384.44 126.382 384.271 125.949C384.103 125.512 384.019 125.047 384.019 124.555V124.281C384.019 123.721 384.098 123.208 384.258 122.743C384.417 122.278 384.645 121.875 384.941 121.533C385.242 121.191 385.607 120.929 386.035 120.747C386.464 120.56 386.947 120.467 387.484 120.467C388.008 120.467 388.473 120.553 388.879 120.727C389.285 120.9 389.624 121.146 389.897 121.465C390.175 121.784 390.385 122.167 390.526 122.613C390.668 123.055 390.738 123.548 390.738 124.09V124.91H384.859V123.598H388.804V123.447C388.804 123.174 388.754 122.93 388.653 122.716C388.558 122.497 388.412 122.324 388.216 122.196C388.02 122.069 387.769 122.005 387.464 122.005C387.204 122.005 386.981 122.062 386.794 122.176C386.607 122.29 386.454 122.449 386.336 122.654C386.222 122.859 386.135 123.101 386.076 123.379C386.021 123.652 385.994 123.953 385.994 124.281V124.555C385.994 124.851 386.035 125.124 386.117 125.375C386.204 125.626 386.325 125.842 386.479 126.024C386.639 126.207 386.83 126.348 387.054 126.448C387.282 126.549 387.539 126.599 387.826 126.599C388.182 126.599 388.512 126.53 388.817 126.394C389.127 126.252 389.394 126.04 389.617 125.758L390.574 126.797C390.419 127.02 390.207 127.234 389.938 127.439C389.674 127.645 389.355 127.813 388.981 127.945C388.608 128.073 388.182 128.137 387.703 128.137ZM395.852 126.332V123.037C395.852 122.8 395.813 122.597 395.735 122.429C395.658 122.256 395.537 122.121 395.373 122.025C395.214 121.93 395.006 121.882 394.751 121.882C394.532 121.882 394.343 121.921 394.184 121.998C394.024 122.071 393.901 122.178 393.814 122.319C393.728 122.456 393.685 122.618 393.685 122.805H391.716C391.716 122.49 391.789 122.192 391.935 121.909C392.08 121.627 392.292 121.378 392.57 121.164C392.848 120.945 393.179 120.774 393.562 120.651C393.949 120.528 394.382 120.467 394.86 120.467C395.435 120.467 395.945 120.562 396.392 120.754C396.838 120.945 397.189 121.232 397.444 121.615C397.704 121.998 397.834 122.477 397.834 123.051V126.216C397.834 126.621 397.859 126.954 397.909 127.214C397.959 127.469 398.032 127.692 398.128 127.884V128H396.139C396.043 127.799 395.97 127.549 395.92 127.248C395.874 126.943 395.852 126.637 395.852 126.332ZM396.111 123.495L396.125 124.609H395.024C394.765 124.609 394.539 124.639 394.348 124.698C394.156 124.757 393.999 124.842 393.876 124.951C393.753 125.056 393.662 125.179 393.603 125.32C393.548 125.462 393.521 125.617 393.521 125.785C393.521 125.954 393.559 126.106 393.637 126.243C393.714 126.375 393.826 126.48 393.972 126.558C394.118 126.631 394.288 126.667 394.484 126.667C394.781 126.667 395.038 126.608 395.257 126.489C395.476 126.371 395.644 126.225 395.763 126.052C395.886 125.879 395.95 125.715 395.954 125.56L396.474 126.394C396.401 126.58 396.3 126.774 396.173 126.975C396.05 127.175 395.893 127.364 395.701 127.542C395.51 127.715 395.28 127.859 395.011 127.973C394.742 128.082 394.423 128.137 394.054 128.137C393.584 128.137 393.158 128.043 392.775 127.856C392.397 127.665 392.096 127.403 391.873 127.07C391.654 126.733 391.545 126.35 391.545 125.922C391.545 125.535 391.618 125.19 391.764 124.89C391.91 124.589 392.124 124.336 392.406 124.131C392.693 123.921 393.051 123.764 393.479 123.659C393.908 123.55 394.405 123.495 394.97 123.495H396.111ZM402.975 120.604V121.998H398.668V120.604H402.975ZM399.734 118.778H401.703V125.771C401.703 125.986 401.73 126.15 401.785 126.264C401.844 126.378 401.931 126.457 402.045 126.503C402.159 126.544 402.302 126.564 402.476 126.564C402.599 126.564 402.708 126.56 402.804 126.551C402.904 126.537 402.988 126.523 403.057 126.51L403.063 127.959C402.895 128.014 402.713 128.057 402.517 128.089C402.321 128.121 402.104 128.137 401.867 128.137C401.434 128.137 401.056 128.066 400.732 127.925C400.413 127.779 400.167 127.547 399.994 127.228C399.821 126.909 399.734 126.489 399.734 125.97V118.778ZM408.471 126.229V120.604H410.439V128H408.587L408.471 126.229ZM408.689 124.712L409.271 124.698C409.271 125.19 409.214 125.648 409.1 126.072C408.986 126.492 408.815 126.856 408.587 127.166C408.359 127.471 408.072 127.711 407.726 127.884C407.379 128.052 406.971 128.137 406.502 128.137C406.142 128.137 405.809 128.087 405.504 127.986C405.203 127.882 404.943 127.72 404.725 127.501C404.51 127.278 404.342 126.993 404.219 126.646C404.1 126.296 404.041 125.874 404.041 125.382V120.604H406.01V125.396C406.01 125.614 406.035 125.799 406.085 125.949C406.14 126.1 406.215 126.223 406.311 126.318C406.406 126.414 406.518 126.482 406.646 126.523C406.778 126.564 406.924 126.585 407.083 126.585C407.489 126.585 407.808 126.503 408.04 126.339C408.277 126.175 408.443 125.951 408.539 125.669C408.639 125.382 408.689 125.063 408.689 124.712ZM413.912 122.217V128H411.943V120.604H413.796L413.912 122.217ZM416.141 120.556L416.106 122.381C416.011 122.367 415.895 122.356 415.758 122.347C415.626 122.333 415.505 122.326 415.396 122.326C415.118 122.326 414.876 122.363 414.671 122.436C414.47 122.504 414.302 122.606 414.165 122.743C414.033 122.88 413.933 123.046 413.864 123.242C413.8 123.438 413.764 123.661 413.755 123.912L413.358 123.789C413.358 123.311 413.406 122.871 413.502 122.47C413.598 122.064 413.737 121.711 413.919 121.41C414.106 121.109 414.334 120.877 414.603 120.713C414.871 120.549 415.179 120.467 415.525 120.467C415.635 120.467 415.746 120.476 415.86 120.494C415.974 120.508 416.068 120.528 416.141 120.556ZM420.338 128.137C419.764 128.137 419.249 128.046 418.793 127.863C418.337 127.676 417.95 127.419 417.631 127.091C417.316 126.763 417.075 126.382 416.906 125.949C416.738 125.512 416.653 125.047 416.653 124.555V124.281C416.653 123.721 416.733 123.208 416.893 122.743C417.052 122.278 417.28 121.875 417.576 121.533C417.877 121.191 418.242 120.929 418.67 120.747C419.098 120.56 419.581 120.467 420.119 120.467C420.643 120.467 421.108 120.553 421.514 120.727C421.919 120.9 422.259 121.146 422.532 121.465C422.81 121.784 423.02 122.167 423.161 122.613C423.302 123.055 423.373 123.548 423.373 124.09V124.91H417.494V123.598H421.438V123.447C421.438 123.174 421.388 122.93 421.288 122.716C421.192 122.497 421.047 122.324 420.851 122.196C420.655 122.069 420.404 122.005 420.099 122.005C419.839 122.005 419.616 122.062 419.429 122.176C419.242 122.29 419.089 122.449 418.971 122.654C418.857 122.859 418.77 123.101 418.711 123.379C418.656 123.652 418.629 123.953 418.629 124.281V124.555C418.629 124.851 418.67 125.124 418.752 125.375C418.839 125.626 418.959 125.842 419.114 126.024C419.274 126.207 419.465 126.348 419.688 126.448C419.916 126.549 420.174 126.599 420.461 126.599C420.816 126.599 421.147 126.53 421.452 126.394C421.762 126.252 422.029 126.04 422.252 125.758L423.209 126.797C423.054 127.02 422.842 127.234 422.573 127.439C422.309 127.645 421.99 127.813 421.616 127.945C421.243 128.073 420.816 128.137 420.338 128.137ZM428.493 125.956C428.493 125.815 428.452 125.687 428.37 125.573C428.288 125.459 428.135 125.354 427.912 125.259C427.693 125.159 427.377 125.067 426.962 124.985C426.588 124.903 426.24 124.801 425.916 124.678C425.597 124.55 425.319 124.397 425.082 124.22C424.85 124.042 424.667 123.832 424.535 123.591C424.403 123.345 424.337 123.064 424.337 122.75C424.337 122.44 424.403 122.148 424.535 121.875C424.672 121.602 424.866 121.36 425.116 121.15C425.371 120.936 425.681 120.77 426.046 120.651C426.415 120.528 426.83 120.467 427.29 120.467C427.933 120.467 428.484 120.569 428.944 120.774C429.409 120.979 429.765 121.262 430.011 121.622C430.261 121.978 430.387 122.383 430.387 122.839H428.418C428.418 122.647 428.377 122.477 428.295 122.326C428.217 122.171 428.094 122.05 427.926 121.964C427.762 121.873 427.548 121.827 427.283 121.827C427.064 121.827 426.875 121.866 426.716 121.943C426.556 122.016 426.433 122.117 426.347 122.244C426.265 122.367 426.224 122.504 426.224 122.654C426.224 122.768 426.246 122.871 426.292 122.962C426.342 123.049 426.422 123.128 426.531 123.201C426.641 123.274 426.782 123.342 426.955 123.406C427.133 123.465 427.352 123.52 427.611 123.57C428.145 123.68 428.621 123.823 429.04 124.001C429.459 124.174 429.792 124.411 430.038 124.712C430.284 125.008 430.407 125.398 430.407 125.881C430.407 126.209 430.334 126.51 430.188 126.783C430.043 127.057 429.833 127.296 429.56 127.501C429.286 127.701 428.958 127.859 428.575 127.973C428.197 128.082 427.771 128.137 427.297 128.137C426.609 128.137 426.025 128.014 425.547 127.768C425.073 127.521 424.713 127.209 424.467 126.831C424.225 126.448 424.104 126.056 424.104 125.655H425.971C425.98 125.924 426.048 126.141 426.176 126.305C426.308 126.469 426.474 126.587 426.675 126.66C426.88 126.733 427.101 126.77 427.338 126.77C427.593 126.77 427.805 126.735 427.974 126.667C428.142 126.594 428.27 126.498 428.356 126.38C428.448 126.257 428.493 126.116 428.493 125.956Z" fill="black"/>
<path d="M495.889 118.047H499.601C500.362 118.047 501.016 118.161 501.562 118.389C502.114 118.617 502.538 118.954 502.834 119.4C503.13 119.847 503.278 120.396 503.278 121.048C503.278 121.581 503.187 122.039 503.005 122.422C502.827 122.8 502.574 123.117 502.246 123.372C501.923 123.623 501.542 123.823 501.104 123.974L500.455 124.315H497.229L497.215 122.716H499.614C499.974 122.716 500.273 122.652 500.51 122.524C500.747 122.397 500.924 122.219 501.043 121.991C501.166 121.763 501.228 121.499 501.228 121.198C501.228 120.879 501.168 120.604 501.05 120.371C500.931 120.139 500.751 119.961 500.51 119.838C500.268 119.715 499.965 119.653 499.601 119.653H497.939V128H495.889V118.047ZM501.453 128L499.184 123.563L501.351 123.55L503.647 127.904V128H501.453ZM508.139 128.137C507.564 128.137 507.049 128.046 506.594 127.863C506.138 127.676 505.751 127.419 505.432 127.091C505.117 126.763 504.876 126.382 504.707 125.949C504.538 125.512 504.454 125.047 504.454 124.555V124.281C504.454 123.721 504.534 123.208 504.693 122.743C504.853 122.278 505.081 121.875 505.377 121.533C505.678 121.191 506.042 120.929 506.471 120.747C506.899 120.56 507.382 120.467 507.92 120.467C508.444 120.467 508.909 120.553 509.314 120.727C509.72 120.9 510.06 121.146 510.333 121.465C510.611 121.784 510.821 122.167 510.962 122.613C511.103 123.055 511.174 123.548 511.174 124.09V124.91H505.295V123.598H509.239V123.447C509.239 123.174 509.189 122.93 509.089 122.716C508.993 122.497 508.847 122.324 508.651 122.196C508.455 122.069 508.205 122.005 507.899 122.005C507.64 122.005 507.416 122.062 507.229 122.176C507.043 122.29 506.89 122.449 506.771 122.654C506.658 122.859 506.571 123.101 506.512 123.379C506.457 123.652 506.43 123.953 506.43 124.281V124.555C506.43 124.851 506.471 125.124 506.553 125.375C506.639 125.626 506.76 125.842 506.915 126.024C507.075 126.207 507.266 126.348 507.489 126.448C507.717 126.549 507.975 126.599 508.262 126.599C508.617 126.599 508.948 126.53 509.253 126.394C509.563 126.252 509.829 126.04 510.053 125.758L511.01 126.797C510.855 127.02 510.643 127.234 510.374 127.439C510.11 127.645 509.791 127.813 509.417 127.945C509.043 128.073 508.617 128.137 508.139 128.137ZM516.294 125.956C516.294 125.815 516.253 125.687 516.171 125.573C516.089 125.459 515.936 125.354 515.713 125.259C515.494 125.159 515.177 125.067 514.763 124.985C514.389 124.903 514.04 124.801 513.717 124.678C513.398 124.55 513.12 124.397 512.883 124.22C512.65 124.042 512.468 123.832 512.336 123.591C512.204 123.345 512.138 123.064 512.138 122.75C512.138 122.44 512.204 122.148 512.336 121.875C512.473 121.602 512.666 121.36 512.917 121.15C513.172 120.936 513.482 120.77 513.847 120.651C514.216 120.528 514.631 120.467 515.091 120.467C515.733 120.467 516.285 120.569 516.745 120.774C517.21 120.979 517.565 121.262 517.812 121.622C518.062 121.978 518.188 122.383 518.188 122.839H516.219C516.219 122.647 516.178 122.477 516.096 122.326C516.018 122.171 515.895 122.05 515.727 121.964C515.562 121.873 515.348 121.827 515.084 121.827C514.865 121.827 514.676 121.866 514.517 121.943C514.357 122.016 514.234 122.117 514.147 122.244C514.065 122.367 514.024 122.504 514.024 122.654C514.024 122.768 514.047 122.871 514.093 122.962C514.143 123.049 514.223 123.128 514.332 123.201C514.441 123.274 514.583 123.342 514.756 123.406C514.934 123.465 515.152 123.52 515.412 123.57C515.945 123.68 516.422 123.823 516.841 124.001C517.26 124.174 517.593 124.411 517.839 124.712C518.085 125.008 518.208 125.398 518.208 125.881C518.208 126.209 518.135 126.51 517.989 126.783C517.843 127.057 517.634 127.296 517.36 127.501C517.087 127.701 516.759 127.859 516.376 127.973C515.998 128.082 515.572 128.137 515.098 128.137C514.41 128.137 513.826 128.014 513.348 127.768C512.874 127.521 512.514 127.209 512.268 126.831C512.026 126.448 511.905 126.056 511.905 125.655H513.771C513.781 125.924 513.849 126.141 513.977 126.305C514.109 126.469 514.275 126.587 514.476 126.66C514.681 126.733 514.902 126.77 515.139 126.77C515.394 126.77 515.606 126.735 515.774 126.667C515.943 126.594 516.071 126.498 516.157 126.38C516.248 126.257 516.294 126.116 516.294 125.956ZM519.172 124.377V124.233C519.172 123.691 519.249 123.192 519.404 122.736C519.559 122.276 519.785 121.877 520.081 121.54C520.377 121.203 520.742 120.941 521.175 120.754C521.608 120.562 522.104 120.467 522.665 120.467C523.226 120.467 523.725 120.562 524.162 120.754C524.6 120.941 524.966 121.203 525.263 121.54C525.563 121.877 525.791 122.276 525.946 122.736C526.101 123.192 526.179 123.691 526.179 124.233V124.377C526.179 124.915 526.101 125.414 525.946 125.874C525.791 126.33 525.563 126.729 525.263 127.07C524.966 127.408 524.602 127.67 524.169 127.856C523.736 128.043 523.239 128.137 522.679 128.137C522.118 128.137 521.619 128.043 521.182 127.856C520.749 127.67 520.382 127.408 520.081 127.07C519.785 126.729 519.559 126.33 519.404 125.874C519.249 125.414 519.172 124.915 519.172 124.377ZM521.141 124.233V124.377C521.141 124.687 521.168 124.976 521.223 125.245C521.277 125.514 521.364 125.751 521.482 125.956C521.605 126.157 521.765 126.314 521.961 126.428C522.157 126.542 522.396 126.599 522.679 126.599C522.952 126.599 523.187 126.542 523.383 126.428C523.579 126.314 523.736 126.157 523.854 125.956C523.973 125.751 524.06 125.514 524.114 125.245C524.174 124.976 524.203 124.687 524.203 124.377V124.233C524.203 123.933 524.174 123.65 524.114 123.386C524.06 123.117 523.971 122.88 523.848 122.675C523.729 122.465 523.572 122.301 523.376 122.183C523.18 122.064 522.943 122.005 522.665 122.005C522.387 122.005 522.15 122.064 521.954 122.183C521.763 122.301 521.605 122.465 521.482 122.675C521.364 122.88 521.277 123.117 521.223 123.386C521.168 123.65 521.141 123.933 521.141 124.233ZM531.764 126.229V120.604H533.732V128H531.88L531.764 126.229ZM531.982 124.712L532.563 124.698C532.563 125.19 532.507 125.648 532.393 126.072C532.279 126.492 532.108 126.856 531.88 127.166C531.652 127.471 531.365 127.711 531.019 127.884C530.672 128.052 530.264 128.137 529.795 128.137C529.435 128.137 529.102 128.087 528.797 127.986C528.496 127.882 528.236 127.72 528.018 127.501C527.803 127.278 527.635 126.993 527.512 126.646C527.393 126.296 527.334 125.874 527.334 125.382V120.604H529.303V125.396C529.303 125.614 529.328 125.799 529.378 125.949C529.433 126.1 529.508 126.223 529.604 126.318C529.699 126.414 529.811 126.482 529.938 126.523C530.071 126.564 530.216 126.585 530.376 126.585C530.782 126.585 531.101 126.503 531.333 126.339C531.57 126.175 531.736 125.951 531.832 125.669C531.932 125.382 531.982 125.063 531.982 124.712ZM537.205 122.217V128H535.236V120.604H537.089L537.205 122.217ZM539.434 120.556L539.399 122.381C539.304 122.367 539.188 122.356 539.051 122.347C538.919 122.333 538.798 122.326 538.688 122.326C538.41 122.326 538.169 122.363 537.964 122.436C537.763 122.504 537.595 122.606 537.458 122.743C537.326 122.88 537.226 123.046 537.157 123.242C537.093 123.438 537.057 123.661 537.048 123.912L536.651 123.789C536.651 123.311 536.699 122.871 536.795 122.47C536.891 122.064 537.03 121.711 537.212 121.41C537.399 121.109 537.627 120.877 537.896 120.713C538.164 120.549 538.472 120.467 538.818 120.467C538.928 120.467 539.039 120.476 539.153 120.494C539.267 120.508 539.361 120.528 539.434 120.556ZM543.282 126.599C543.524 126.599 543.738 126.553 543.925 126.462C544.112 126.366 544.257 126.234 544.362 126.065C544.472 125.892 544.529 125.689 544.533 125.457H546.386C546.381 125.977 546.242 126.439 545.969 126.845C545.695 127.246 545.328 127.562 544.868 127.795C544.408 128.023 543.893 128.137 543.323 128.137C542.749 128.137 542.248 128.041 541.819 127.85C541.396 127.658 541.042 127.394 540.76 127.057C540.477 126.715 540.265 126.318 540.124 125.867C539.983 125.411 539.912 124.924 539.912 124.404V124.206C539.912 123.682 539.983 123.194 540.124 122.743C540.265 122.287 540.477 121.891 540.76 121.554C541.042 121.212 541.396 120.945 541.819 120.754C542.243 120.562 542.74 120.467 543.31 120.467C543.916 120.467 544.447 120.583 544.902 120.815C545.363 121.048 545.723 121.381 545.982 121.813C546.247 122.242 546.381 122.75 546.386 123.338H544.533C544.529 123.092 544.476 122.868 544.376 122.668C544.28 122.467 544.139 122.308 543.952 122.189C543.77 122.066 543.544 122.005 543.275 122.005C542.988 122.005 542.754 122.066 542.571 122.189C542.389 122.308 542.248 122.472 542.147 122.682C542.047 122.887 541.977 123.121 541.936 123.386C541.899 123.646 541.881 123.919 541.881 124.206V124.404C541.881 124.691 541.899 124.967 541.936 125.231C541.972 125.496 542.04 125.73 542.141 125.936C542.245 126.141 542.389 126.302 542.571 126.421C542.754 126.539 542.991 126.599 543.282 126.599ZM550.932 128.137C550.357 128.137 549.842 128.046 549.387 127.863C548.931 127.676 548.544 127.419 548.225 127.091C547.91 126.763 547.669 126.382 547.5 125.949C547.331 125.512 547.247 125.047 547.247 124.555V124.281C547.247 123.721 547.327 123.208 547.486 122.743C547.646 122.278 547.874 121.875 548.17 121.533C548.471 121.191 548.835 120.929 549.264 120.747C549.692 120.56 550.175 120.467 550.713 120.467C551.237 120.467 551.702 120.553 552.107 120.727C552.513 120.9 552.853 121.146 553.126 121.465C553.404 121.784 553.614 122.167 553.755 122.613C553.896 123.055 553.967 123.548 553.967 124.09V124.91H548.088V123.598H552.032V123.447C552.032 123.174 551.982 122.93 551.882 122.716C551.786 122.497 551.64 122.324 551.444 122.196C551.248 122.069 550.998 122.005 550.692 122.005C550.433 122.005 550.209 122.062 550.022 122.176C549.836 122.29 549.683 122.449 549.564 122.654C549.451 122.859 549.364 123.101 549.305 123.379C549.25 123.652 549.223 123.953 549.223 124.281V124.555C549.223 124.851 549.264 125.124 549.346 125.375C549.432 125.626 549.553 125.842 549.708 126.024C549.868 126.207 550.059 126.348 550.282 126.448C550.51 126.549 550.768 126.599 551.055 126.599C551.41 126.599 551.741 126.53 552.046 126.394C552.356 126.252 552.622 126.04 552.846 125.758L553.803 126.797C553.648 127.02 553.436 127.234 553.167 127.439C552.903 127.645 552.584 127.813 552.21 127.945C551.836 128.073 551.41 128.137 550.932 128.137ZM559.087 125.956C559.087 125.815 559.046 125.687 558.964 125.573C558.882 125.459 558.729 125.354 558.506 125.259C558.287 125.159 557.97 125.067 557.556 124.985C557.182 124.903 556.833 124.801 556.51 124.678C556.191 124.55 555.913 124.397 555.676 124.22C555.443 124.042 555.261 123.832 555.129 123.591C554.997 123.345 554.931 123.064 554.931 122.75C554.931 122.44 554.997 122.148 555.129 121.875C555.266 121.602 555.459 121.36 555.71 121.15C555.965 120.936 556.275 120.77 556.64 120.651C557.009 120.528 557.424 120.467 557.884 120.467C558.526 120.467 559.078 120.569 559.538 120.774C560.003 120.979 560.358 121.262 560.604 121.622C560.855 121.978 560.98 122.383 560.98 122.839H559.012C559.012 122.647 558.971 122.477 558.889 122.326C558.811 122.171 558.688 122.05 558.52 121.964C558.355 121.873 558.141 121.827 557.877 121.827C557.658 121.827 557.469 121.866 557.31 121.943C557.15 122.016 557.027 122.117 556.94 122.244C556.858 122.367 556.817 122.504 556.817 122.654C556.817 122.768 556.84 122.871 556.886 122.962C556.936 123.049 557.016 123.128 557.125 123.201C557.234 123.274 557.376 123.342 557.549 123.406C557.727 123.465 557.945 123.52 558.205 123.57C558.738 123.68 559.215 123.823 559.634 124.001C560.053 124.174 560.386 124.411 560.632 124.712C560.878 125.008 561.001 125.398 561.001 125.881C561.001 126.209 560.928 126.51 560.782 126.783C560.636 127.057 560.427 127.296 560.153 127.501C559.88 127.701 559.552 127.859 559.169 127.973C558.791 128.082 558.365 128.137 557.891 128.137C557.202 128.137 556.619 128.014 556.141 127.768C555.667 127.521 555.307 127.209 555.061 126.831C554.819 126.448 554.698 126.056 554.698 125.655H556.564C556.574 125.924 556.642 126.141 556.77 126.305C556.902 126.469 557.068 126.587 557.269 126.66C557.474 126.733 557.695 126.77 557.932 126.77C558.187 126.77 558.399 126.735 558.567 126.667C558.736 126.594 558.864 126.498 558.95 126.38C559.041 126.257 559.087 126.116 559.087 125.956Z" fill="black"/>
<path d="M882.936 119.749L880.229 128H878.048L881.746 118.047H883.134L882.936 119.749ZM885.185 128L882.471 119.749L882.252 118.047H883.653L887.372 128H885.185ZM885.062 124.295V125.901H879.805V124.295H885.062ZM888.172 117.5H890.141V126.305L889.942 128H888.172V117.5ZM894.823 124.227V124.37C894.823 124.922 894.764 125.427 894.646 125.888C894.532 126.348 894.354 126.747 894.112 127.084C893.871 127.417 893.57 127.676 893.21 127.863C892.854 128.046 892.435 128.137 891.952 128.137C891.501 128.137 891.109 128.046 890.776 127.863C890.448 127.681 890.173 127.424 889.949 127.091C889.726 126.758 889.546 126.368 889.409 125.922C889.272 125.475 889.17 124.988 889.102 124.459V124.145C889.17 123.616 889.272 123.128 889.409 122.682C889.546 122.235 889.726 121.845 889.949 121.513C890.173 121.18 890.448 120.923 890.776 120.74C891.104 120.558 891.492 120.467 891.938 120.467C892.426 120.467 892.85 120.56 893.21 120.747C893.575 120.929 893.875 121.189 894.112 121.526C894.354 121.859 894.532 122.256 894.646 122.716C894.764 123.172 894.823 123.675 894.823 124.227ZM892.854 124.37V124.227C892.854 123.926 892.832 123.643 892.786 123.379C892.745 123.11 892.672 122.875 892.567 122.675C892.463 122.47 892.319 122.308 892.137 122.189C891.959 122.071 891.729 122.012 891.446 122.012C891.177 122.012 890.95 122.057 890.763 122.148C890.576 122.24 890.421 122.367 890.298 122.531C890.179 122.695 890.09 122.891 890.031 123.119C889.972 123.342 889.936 123.589 889.922 123.857V124.753C889.936 125.113 889.995 125.432 890.1 125.71C890.209 125.983 890.373 126.2 890.592 126.359C890.815 126.514 891.104 126.592 891.46 126.592C891.738 126.592 891.968 126.537 892.15 126.428C892.333 126.318 892.474 126.163 892.574 125.963C892.679 125.762 892.752 125.528 892.793 125.259C892.834 124.985 892.854 124.689 892.854 124.37ZM895.732 124.377V124.233C895.732 123.691 895.81 123.192 895.965 122.736C896.12 122.276 896.345 121.877 896.642 121.54C896.938 121.203 897.302 120.941 897.735 120.754C898.168 120.562 898.665 120.467 899.226 120.467C899.786 120.467 900.285 120.562 900.723 120.754C901.16 120.941 901.527 121.203 901.823 121.54C902.124 121.877 902.352 122.276 902.507 122.736C902.662 123.192 902.739 123.691 902.739 124.233V124.377C902.739 124.915 902.662 125.414 902.507 125.874C902.352 126.33 902.124 126.729 901.823 127.07C901.527 127.408 901.162 127.67 900.729 127.856C900.297 128.043 899.8 128.137 899.239 128.137C898.679 128.137 898.18 128.043 897.742 127.856C897.309 127.67 896.942 127.408 896.642 127.07C896.345 126.729 896.12 126.33 895.965 125.874C895.81 125.414 895.732 124.915 895.732 124.377ZM897.701 124.233V124.377C897.701 124.687 897.729 124.976 897.783 125.245C897.838 125.514 897.924 125.751 898.043 125.956C898.166 126.157 898.326 126.314 898.521 126.428C898.717 126.542 898.957 126.599 899.239 126.599C899.513 126.599 899.747 126.542 899.943 126.428C900.139 126.314 900.297 126.157 900.415 125.956C900.534 125.751 900.62 125.514 900.675 125.245C900.734 124.976 900.764 124.687 900.764 124.377V124.233C900.764 123.933 900.734 123.65 900.675 123.386C900.62 123.117 900.531 122.88 900.408 122.675C900.29 122.465 900.132 122.301 899.937 122.183C899.741 122.064 899.504 122.005 899.226 122.005C898.948 122.005 898.711 122.064 898.515 122.183C898.323 122.301 898.166 122.465 898.043 122.675C897.924 122.88 897.838 123.117 897.783 123.386C897.729 123.65 897.701 123.933 897.701 124.233ZM908.324 126.229V120.604H910.293V128H908.44L908.324 126.229ZM908.543 124.712L909.124 124.698C909.124 125.19 909.067 125.648 908.953 126.072C908.839 126.492 908.668 126.856 908.44 127.166C908.213 127.471 907.925 127.711 907.579 127.884C907.233 128.052 906.825 128.137 906.355 128.137C905.995 128.137 905.663 128.087 905.357 127.986C905.057 127.882 904.797 127.72 904.578 127.501C904.364 127.278 904.195 126.993 904.072 126.646C903.954 126.296 903.895 125.874 903.895 125.382V120.604H905.863V125.396C905.863 125.614 905.888 125.799 905.938 125.949C905.993 126.1 906.068 126.223 906.164 126.318C906.26 126.414 906.371 126.482 906.499 126.523C906.631 126.564 906.777 126.585 906.937 126.585C907.342 126.585 907.661 126.503 907.894 126.339C908.131 126.175 908.297 125.951 908.393 125.669C908.493 125.382 908.543 125.063 908.543 124.712ZM915.42 120.604V121.998H911.113V120.604H915.42ZM912.18 118.778H914.148V125.771C914.148 125.986 914.176 126.15 914.23 126.264C914.29 126.378 914.376 126.457 914.49 126.503C914.604 126.544 914.748 126.564 914.921 126.564C915.044 126.564 915.153 126.56 915.249 126.551C915.349 126.537 915.434 126.523 915.502 126.51L915.509 127.959C915.34 128.014 915.158 128.057 914.962 128.089C914.766 128.121 914.549 128.137 914.312 128.137C913.88 128.137 913.501 128.066 913.178 127.925C912.859 127.779 912.613 127.547 912.439 127.228C912.266 126.909 912.18 126.489 912.18 125.97V118.778Z" fill="black"/>
<path d="M984.785 123.632H982.229L982.215 122.224H984.361C984.74 122.224 985.049 122.176 985.291 122.08C985.533 121.98 985.713 121.836 985.831 121.649C985.954 121.458 986.016 121.226 986.016 120.952C986.016 120.642 985.956 120.392 985.838 120.2C985.724 120.009 985.544 119.87 985.298 119.783C985.056 119.697 984.744 119.653 984.361 119.653H982.939V128H980.889V118.047H984.361C984.94 118.047 985.457 118.102 985.913 118.211C986.373 118.32 986.763 118.487 987.082 118.71C987.401 118.933 987.645 119.216 987.813 119.558C987.982 119.895 988.066 120.296 988.066 120.761C988.066 121.171 987.973 121.549 987.786 121.896C987.604 122.242 987.314 122.524 986.918 122.743C986.526 122.962 986.013 123.083 985.38 123.105L984.785 123.632ZM984.696 128H981.668L982.468 126.4H984.696C985.056 126.4 985.35 126.343 985.578 126.229C985.806 126.111 985.975 125.951 986.084 125.751C986.193 125.55 986.248 125.32 986.248 125.061C986.248 124.769 986.198 124.516 986.098 124.302C986.002 124.088 985.847 123.924 985.633 123.81C985.419 123.691 985.136 123.632 984.785 123.632H982.81L982.823 122.224H985.284L985.756 122.777C986.362 122.768 986.85 122.875 987.219 123.099C987.592 123.317 987.864 123.602 988.032 123.953C988.205 124.304 988.292 124.68 988.292 125.081C988.292 125.719 988.153 126.257 987.875 126.694C987.597 127.127 987.189 127.453 986.651 127.672C986.118 127.891 985.466 128 984.696 128ZM991.785 117.5V128H989.81V117.5H991.785ZM993.098 124.377V124.233C993.098 123.691 993.175 123.192 993.33 122.736C993.485 122.276 993.711 121.877 994.007 121.54C994.303 121.203 994.668 120.941 995.101 120.754C995.534 120.562 996.03 120.467 996.591 120.467C997.151 120.467 997.65 120.562 998.088 120.754C998.525 120.941 998.892 121.203 999.188 121.54C999.489 121.877 999.717 122.276 999.872 122.736C1000.03 123.192 1000.1 123.691 1000.1 124.233V124.377C1000.1 124.915 1000.03 125.414 999.872 125.874C999.717 126.33 999.489 126.729 999.188 127.07C998.892 127.408 998.528 127.67 998.095 127.856C997.662 128.043 997.165 128.137 996.604 128.137C996.044 128.137 995.545 128.043 995.107 127.856C994.674 127.67 994.308 127.408 994.007 127.07C993.711 126.729 993.485 126.33 993.33 125.874C993.175 125.414 993.098 124.915 993.098 124.377ZM995.066 124.233V124.377C995.066 124.687 995.094 124.976 995.148 125.245C995.203 125.514 995.29 125.751 995.408 125.956C995.531 126.157 995.691 126.314 995.887 126.428C996.083 126.542 996.322 126.599 996.604 126.599C996.878 126.599 997.113 126.542 997.309 126.428C997.505 126.314 997.662 126.157 997.78 125.956C997.899 125.751 997.985 125.514 998.04 125.245C998.099 124.976 998.129 124.687 998.129 124.377V124.233C998.129 123.933 998.099 123.65 998.04 123.386C997.985 123.117 997.896 122.88 997.773 122.675C997.655 122.465 997.498 122.301 997.302 122.183C997.106 122.064 996.869 122.005 996.591 122.005C996.313 122.005 996.076 122.064 995.88 122.183C995.688 122.301 995.531 122.465 995.408 122.675C995.29 122.88 995.203 123.117 995.148 123.386C995.094 123.65 995.066 123.933 995.066 124.233ZM1006 120.604H1007.78V127.754C1007.78 128.428 1007.63 129 1007.33 129.47C1007.03 129.944 1006.62 130.301 1006.09 130.543C1005.55 130.789 1004.93 130.912 1004.23 130.912C1003.92 130.912 1003.59 130.871 1003.24 130.789C1002.9 130.707 1002.57 130.579 1002.26 130.406C1001.95 130.233 1001.69 130.014 1001.48 129.75L1002.35 128.588C1002.57 128.852 1002.84 129.057 1003.14 129.203C1003.44 129.354 1003.77 129.429 1004.14 129.429C1004.49 129.429 1004.79 129.363 1005.04 129.23C1005.29 129.103 1005.48 128.914 1005.61 128.663C1005.74 128.417 1005.81 128.118 1005.81 127.768V122.312L1006 120.604ZM1001.02 124.391V124.247C1001.02 123.682 1001.09 123.169 1001.23 122.709C1001.37 122.244 1001.57 121.845 1001.82 121.513C1002.08 121.18 1002.39 120.923 1002.76 120.74C1003.13 120.558 1003.55 120.467 1004.01 120.467C1004.51 120.467 1004.92 120.558 1005.25 120.74C1005.58 120.923 1005.86 121.182 1006.07 121.52C1006.29 121.852 1006.45 122.246 1006.57 122.702C1006.69 123.153 1006.79 123.648 1006.86 124.186V124.5C1006.79 125.015 1006.69 125.493 1006.55 125.936C1006.41 126.378 1006.23 126.765 1006.01 127.098C1005.79 127.426 1005.51 127.681 1005.18 127.863C1004.85 128.046 1004.46 128.137 1004 128.137C1003.55 128.137 1003.13 128.043 1002.76 127.856C1002.4 127.67 1002.09 127.408 1001.83 127.07C1001.57 126.733 1001.37 126.337 1001.23 125.881C1001.09 125.425 1001.02 124.928 1001.02 124.391ZM1002.99 124.247V124.391C1002.99 124.696 1003.02 124.981 1003.08 125.245C1003.14 125.509 1003.23 125.744 1003.35 125.949C1003.48 126.15 1003.64 126.307 1003.82 126.421C1004.01 126.53 1004.24 126.585 1004.5 126.585C1004.86 126.585 1005.15 126.51 1005.38 126.359C1005.61 126.204 1005.78 125.993 1005.89 125.724C1006.01 125.455 1006.07 125.145 1006.09 124.794V123.898C1006.08 123.611 1006.04 123.354 1005.98 123.126C1005.91 122.894 1005.81 122.695 1005.69 122.531C1005.57 122.367 1005.41 122.24 1005.21 122.148C1005.01 122.057 1004.78 122.012 1004.51 122.012C1004.25 122.012 1004.03 122.071 1003.84 122.189C1003.65 122.303 1003.49 122.461 1003.37 122.661C1003.24 122.862 1003.15 123.099 1003.08 123.372C1003.02 123.641 1002.99 123.933 1002.99 124.247Z" fill="black"/>
<path d="M1079.07 125.396C1079.07 125.218 1079.04 125.058 1078.99 124.917C1078.94 124.771 1078.84 124.639 1078.7 124.521C1078.56 124.397 1078.36 124.277 1078.11 124.158C1077.85 124.04 1077.52 123.917 1077.12 123.789C1076.66 123.643 1076.24 123.479 1075.83 123.297C1075.43 123.115 1075.07 122.903 1074.76 122.661C1074.46 122.415 1074.22 122.13 1074.04 121.807C1073.87 121.483 1073.78 121.107 1073.78 120.679C1073.78 120.264 1073.87 119.888 1074.05 119.551C1074.24 119.209 1074.49 118.917 1074.82 118.676C1075.15 118.43 1075.53 118.241 1075.98 118.108C1076.43 117.976 1076.93 117.91 1077.46 117.91C1078.2 117.91 1078.84 118.042 1079.38 118.307C1079.93 118.571 1080.36 118.933 1080.66 119.394C1080.96 119.854 1081.11 120.38 1081.11 120.973H1079.08C1079.08 120.681 1079.02 120.426 1078.89 120.207C1078.77 119.984 1078.59 119.808 1078.35 119.681C1078.1 119.553 1077.8 119.489 1077.43 119.489C1077.07 119.489 1076.78 119.544 1076.54 119.653C1076.3 119.758 1076.13 119.902 1076.01 120.084C1075.89 120.262 1075.83 120.462 1075.83 120.686C1075.83 120.854 1075.87 121.007 1075.95 121.144C1076.04 121.28 1076.17 121.408 1076.34 121.526C1076.5 121.645 1076.71 121.757 1076.96 121.861C1077.2 121.966 1077.49 122.069 1077.81 122.169C1078.35 122.333 1078.83 122.518 1079.24 122.723C1079.66 122.928 1080 123.158 1080.28 123.413C1080.56 123.668 1080.77 123.958 1080.91 124.281C1081.05 124.605 1081.12 124.972 1081.12 125.382C1081.12 125.815 1081.04 126.202 1080.87 126.544C1080.7 126.886 1080.46 127.175 1080.14 127.412C1079.82 127.649 1079.44 127.829 1079 127.952C1078.55 128.075 1078.06 128.137 1077.51 128.137C1077.02 128.137 1076.53 128.073 1076.06 127.945C1075.58 127.813 1075.14 127.615 1074.75 127.351C1074.36 127.086 1074.05 126.749 1073.82 126.339C1073.59 125.929 1073.47 125.443 1073.47 124.883H1075.53C1075.53 125.193 1075.58 125.455 1075.67 125.669C1075.77 125.883 1075.9 126.056 1076.08 126.188C1076.25 126.321 1076.46 126.416 1076.71 126.476C1076.95 126.535 1077.22 126.564 1077.51 126.564C1077.87 126.564 1078.16 126.514 1078.39 126.414C1078.62 126.314 1078.79 126.175 1078.9 125.997C1079.01 125.819 1079.07 125.619 1079.07 125.396ZM1086.77 126.229V120.604H1088.74V128H1086.88L1086.77 126.229ZM1086.99 124.712L1087.57 124.698C1087.57 125.19 1087.51 125.648 1087.4 126.072C1087.28 126.492 1087.11 126.856 1086.88 127.166C1086.66 127.471 1086.37 127.711 1086.02 127.884C1085.68 128.052 1085.27 128.137 1084.8 128.137C1084.44 128.137 1084.11 128.087 1083.8 127.986C1083.5 127.882 1083.24 127.72 1083.02 127.501C1082.81 127.278 1082.64 126.993 1082.52 126.646C1082.4 126.296 1082.34 125.874 1082.34 125.382V120.604H1084.31V125.396C1084.31 125.614 1084.33 125.799 1084.38 125.949C1084.44 126.1 1084.51 126.223 1084.61 126.318C1084.7 126.414 1084.81 126.482 1084.94 126.523C1085.07 126.564 1085.22 126.585 1085.38 126.585C1085.79 126.585 1086.1 126.503 1086.34 126.339C1086.57 126.175 1086.74 125.951 1086.84 125.669C1086.94 125.382 1086.99 125.063 1086.99 124.712ZM1092.21 122.025V130.844H1090.24V120.604H1092.07L1092.21 122.025ZM1096.89 124.22V124.363C1096.89 124.901 1096.83 125.4 1096.7 125.86C1096.58 126.321 1096.39 126.722 1096.15 127.063C1095.91 127.401 1095.61 127.665 1095.25 127.856C1094.9 128.043 1094.49 128.137 1094.02 128.137C1093.57 128.137 1093.18 128.046 1092.84 127.863C1092.51 127.681 1092.23 127.426 1092 127.098C1091.78 126.765 1091.6 126.38 1091.46 125.942C1091.33 125.505 1091.22 125.035 1091.15 124.534V124.158C1091.22 123.62 1091.33 123.128 1091.46 122.682C1091.6 122.23 1091.78 121.841 1092 121.513C1092.23 121.18 1092.51 120.923 1092.84 120.74C1093.17 120.558 1093.56 120.467 1094.01 120.467C1094.48 120.467 1094.89 120.556 1095.24 120.733C1095.6 120.911 1095.9 121.166 1096.15 121.499C1096.39 121.832 1096.58 122.228 1096.7 122.688C1096.83 123.149 1096.89 123.659 1096.89 124.22ZM1094.92 124.363V124.22C1094.92 123.905 1094.89 123.616 1094.83 123.352C1094.78 123.083 1094.7 122.848 1094.59 122.647C1094.48 122.447 1094.33 122.292 1094.15 122.183C1093.97 122.069 1093.76 122.012 1093.5 122.012C1093.23 122.012 1093 122.055 1092.81 122.142C1092.62 122.228 1092.47 122.354 1092.35 122.518C1092.23 122.682 1092.15 122.878 1092.09 123.105C1092.03 123.333 1091.99 123.591 1091.98 123.878V124.828C1092 125.165 1092.06 125.468 1092.17 125.737C1092.27 126.002 1092.43 126.211 1092.65 126.366C1092.87 126.521 1093.16 126.599 1093.51 126.599C1093.77 126.599 1093.99 126.542 1094.17 126.428C1094.35 126.309 1094.49 126.147 1094.6 125.942C1094.72 125.737 1094.8 125.5 1094.84 125.231C1094.89 124.963 1094.92 124.673 1094.92 124.363ZM1100.08 122.025V130.844H1098.12V120.604H1099.94L1100.08 122.025ZM1104.77 124.22V124.363C1104.77 124.901 1104.7 125.4 1104.58 125.86C1104.45 126.321 1104.27 126.722 1104.03 127.063C1103.79 127.401 1103.49 127.665 1103.13 127.856C1102.77 128.043 1102.36 128.137 1101.9 128.137C1101.44 128.137 1101.05 128.046 1100.72 127.863C1100.39 127.681 1100.11 127.426 1099.88 127.098C1099.66 126.765 1099.48 126.38 1099.34 125.942C1099.2 125.505 1099.1 125.035 1099.02 124.534V124.158C1099.1 123.62 1099.2 123.128 1099.34 122.682C1099.48 122.23 1099.66 121.841 1099.88 121.513C1100.11 121.18 1100.38 120.923 1100.71 120.74C1101.05 120.558 1101.44 120.467 1101.88 120.467C1102.35 120.467 1102.76 120.556 1103.12 120.733C1103.48 120.911 1103.78 121.166 1104.02 121.499C1104.27 121.832 1104.45 122.228 1104.58 122.688C1104.7 123.149 1104.77 123.659 1104.77 124.22ZM1102.79 124.363V124.22C1102.79 123.905 1102.76 123.616 1102.71 123.352C1102.66 123.083 1102.58 122.848 1102.46 122.647C1102.35 122.447 1102.21 122.292 1102.03 122.183C1101.85 122.069 1101.63 122.012 1101.38 122.012C1101.11 122.012 1100.88 122.055 1100.69 122.142C1100.5 122.228 1100.35 122.354 1100.23 122.518C1100.11 122.682 1100.02 122.878 1099.96 123.105C1099.9 123.333 1099.87 123.591 1099.85 123.878V124.828C1099.87 125.165 1099.94 125.468 1100.04 125.737C1100.15 126.002 1100.31 126.211 1100.53 126.366C1100.75 126.521 1101.03 126.599 1101.39 126.599C1101.65 126.599 1101.87 126.542 1102.05 126.428C1102.22 126.309 1102.37 126.147 1102.48 125.942C1102.59 125.737 1102.67 125.5 1102.72 125.231C1102.77 124.963 1102.79 124.673 1102.79 124.363ZM1105.68 124.377V124.233C1105.68 123.691 1105.75 123.192 1105.91 122.736C1106.06 122.276 1106.29 121.877 1106.58 121.54C1106.88 121.203 1107.25 120.941 1107.68 120.754C1108.11 120.562 1108.61 120.467 1109.17 120.467C1109.73 120.467 1110.23 120.562 1110.67 120.754C1111.1 120.941 1111.47 121.203 1111.77 121.54C1112.07 121.877 1112.3 122.276 1112.45 122.736C1112.61 123.192 1112.68 123.691 1112.68 124.233V124.377C1112.68 124.915 1112.61 125.414 1112.45 125.874C1112.3 126.33 1112.07 126.729 1111.77 127.07C1111.47 127.408 1111.11 127.67 1110.67 127.856C1110.24 128.043 1109.74 128.137 1109.18 128.137C1108.62 128.137 1108.12 128.043 1107.69 127.856C1107.25 127.67 1106.89 127.408 1106.58 127.07C1106.29 126.729 1106.06 126.33 1105.91 125.874C1105.75 125.414 1105.68 124.915 1105.68 124.377ZM1107.64 124.233V124.377C1107.64 124.687 1107.67 124.976 1107.73 125.245C1107.78 125.514 1107.87 125.751 1107.99 125.956C1108.11 126.157 1108.27 126.314 1108.46 126.428C1108.66 126.542 1108.9 126.599 1109.18 126.599C1109.46 126.599 1109.69 126.542 1109.89 126.428C1110.08 126.314 1110.24 126.157 1110.36 125.956C1110.48 125.751 1110.56 125.514 1110.62 125.245C1110.68 124.976 1110.71 124.687 1110.71 124.377V124.233C1110.71 123.933 1110.68 123.65 1110.62 123.386C1110.56 123.117 1110.47 122.88 1110.35 122.675C1110.23 122.465 1110.08 122.301 1109.88 122.183C1109.68 122.064 1109.45 122.005 1109.17 122.005C1108.89 122.005 1108.65 122.064 1108.46 122.183C1108.27 122.301 1108.11 122.465 1107.99 122.675C1107.87 122.88 1107.78 123.117 1107.73 123.386C1107.67 123.65 1107.64 123.933 1107.64 124.233ZM1115.86 122.217V128H1113.89V120.604H1115.75L1115.86 122.217ZM1118.09 120.556L1118.06 122.381C1117.96 122.367 1117.84 122.356 1117.71 122.347C1117.57 122.333 1117.45 122.326 1117.34 122.326C1117.07 122.326 1116.83 122.363 1116.62 122.436C1116.42 122.504 1116.25 122.606 1116.11 122.743C1115.98 122.88 1115.88 123.046 1115.81 123.242C1115.75 123.438 1115.71 123.661 1115.7 123.912L1115.31 123.789C1115.31 123.311 1115.36 122.871 1115.45 122.47C1115.55 122.064 1115.69 121.711 1115.87 121.41C1116.06 121.109 1116.28 120.877 1116.55 120.713C1116.82 120.549 1117.13 120.467 1117.47 120.467C1117.58 120.467 1117.7 120.476 1117.81 120.494C1117.92 120.508 1118.02 120.528 1118.09 120.556ZM1122.98 120.604V121.998H1118.68V120.604H1122.98ZM1119.74 118.778H1121.71V125.771C1121.71 125.986 1121.74 126.15 1121.79 126.264C1121.85 126.378 1121.94 126.457 1122.05 126.503C1122.17 126.544 1122.31 126.564 1122.49 126.564C1122.61 126.564 1122.72 126.56 1122.81 126.551C1122.91 126.537 1123 126.523 1123.07 126.51L1123.07 127.959C1122.9 128.014 1122.72 128.057 1122.53 128.089C1122.33 128.121 1122.11 128.137 1121.88 128.137C1121.44 128.137 1121.07 128.066 1120.74 127.925C1120.42 127.779 1120.18 127.547 1120 127.228C1119.83 126.909 1119.74 126.489 1119.74 125.97V118.778Z" fill="black"/>
<path d="M591 243C579.403 243 570 252.403 570 264C570 275.597 579.403 285 591 285C602.597 285 612 275.597 612 264C612 252.403 602.597 243 591 243ZM601.092 258.83C601.106 259.05 601.106 259.28 601.106 259.505C601.106 266.386 595.866 274.312 586.289 274.312C583.336 274.312 580.598 273.455 578.292 271.978C578.714 272.025 579.117 272.044 579.548 272.044C581.986 272.044 584.227 271.219 586.013 269.822C583.725 269.775 581.803 268.275 581.147 266.213C581.948 266.33 582.67 266.33 583.495 266.119C582.317 265.879 581.259 265.24 580.499 264.308C579.739 263.377 579.326 262.211 579.328 261.009V260.944C580.017 261.333 580.828 261.572 581.677 261.605C580.963 261.129 580.378 260.485 579.974 259.73C579.569 258.974 579.357 258.131 579.356 257.273C579.356 256.303 579.609 255.417 580.064 254.648C581.371 256.258 583.003 257.574 584.852 258.512C586.702 259.449 588.728 259.987 590.798 260.091C590.063 256.552 592.706 253.688 595.884 253.688C597.384 253.688 598.734 254.316 599.686 255.328C600.862 255.108 601.987 254.667 602.991 254.077C602.602 255.281 601.786 256.298 600.703 256.941C601.753 256.828 602.766 256.538 603.703 256.13C602.995 257.17 602.109 258.094 601.092 258.83V258.83Z" fill="black"/>
<path d="M847.995 256.33C844.322 256.33 841.325 259.327 841.325 263C841.325 266.672 844.322 269.669 847.995 269.669C851.667 269.669 854.664 266.672 854.664 263C854.664 259.327 851.667 256.33 847.995 256.33ZM867.998 263C867.998 260.238 868.023 257.501 867.868 254.744C867.713 251.542 866.982 248.7 864.641 246.359C862.294 244.012 859.457 243.287 856.255 243.132C853.493 242.976 850.756 243.001 848 243.001C845.238 243.001 842.501 242.976 839.744 243.132C836.542 243.287 833.7 244.017 831.359 246.359C829.012 248.705 828.287 251.542 828.132 254.744C827.976 257.506 828.001 260.243 828.001 263C828.001 265.756 827.976 268.498 828.132 271.255C828.287 274.457 829.017 277.299 831.359 279.641C833.705 281.987 836.542 282.713 839.744 282.868C842.506 283.023 845.243 282.998 848 282.998C850.761 282.998 853.498 283.023 856.255 282.868C859.457 282.713 862.299 281.982 864.641 279.641C866.987 277.294 867.713 274.457 867.868 271.255C868.028 268.498 867.998 265.761 867.998 263V263ZM847.995 273.261C842.316 273.261 837.733 268.678 837.733 263C837.733 257.321 842.316 252.738 847.995 252.738C853.673 252.738 858.256 257.321 858.256 263C858.256 268.678 853.673 273.261 847.995 273.261ZM858.677 254.714C857.351 254.714 856.28 253.643 856.28 252.318C856.28 250.992 857.351 249.921 858.677 249.921C860.003 249.921 861.073 250.992 861.073 252.318C861.074 252.632 861.012 252.944 860.892 253.235C860.771 253.526 860.595 253.791 860.372 254.013C860.15 254.236 859.885 254.412 859.594 254.533C859.303 254.653 858.991 254.715 858.677 254.714V254.714Z" fill="black"/>
<path d="M723.206 262.666L718.714 260.57C718.322 260.388 718 260.592 718 261.026V264.974C718 265.408 718.322 265.612 718.714 265.43L723.204 263.334C723.598 263.15 723.598 262.85 723.206 262.666ZM720 243.8C709.396 243.8 700.8 252.396 700.8 263C700.8 273.604 709.396 282.2 720 282.2C730.604 282.2 739.2 273.604 739.2 263C739.2 252.396 730.604 243.8 720 243.8ZM720 270.8C710.172 270.8 710 269.914 710 263C710 256.086 710.172 255.2 720 255.2C729.828 255.2 730 256.086 730 263C730 269.914 729.828 270.8 720 270.8Z" fill="black"/>
<path d="M779.56 261.603C778.363 261.603 777.42 262.651 777.42 263.932C777.42 265.209 778.385 266.262 779.56 266.262C780.755 266.262 781.697 265.209 781.697 263.932C781.722 262.649 780.755 261.603 779.56 261.603ZM787.218 261.603C786.021 261.603 785.078 262.651 785.078 263.932C785.078 265.209 786.043 266.262 787.218 266.262C788.413 266.262 789.356 265.209 789.356 263.932C789.354 262.649 788.413 261.603 787.218 261.603Z" fill="black"/>
<path d="M797.414 244H769.3C768.734 244.001 768.173 244.114 767.651 244.332C767.128 244.55 766.654 244.869 766.255 245.27C765.856 245.672 765.539 246.148 765.324 246.671C765.109 247.195 764.999 247.756 765 248.322V276.686C765 279.077 766.93 281.007 769.3 281.007H793.09L791.975 277.123L794.662 279.62L797.2 281.97L801.714 285.958V248.322C801.715 247.756 801.605 247.195 801.39 246.671C801.174 246.148 800.858 245.672 800.459 245.27C800.06 244.869 799.585 244.55 799.063 244.332C798.54 244.114 797.98 244.001 797.414 244V244ZM789.314 271.399C789.314 271.399 788.559 270.498 787.931 269.696C790.679 268.919 791.727 267.201 791.727 267.201C790.866 267.766 790.049 268.168 789.314 268.442C786.637 269.562 783.688 269.868 780.838 269.321C779.785 269.114 778.753 268.811 777.755 268.415C777.229 268.215 776.718 267.979 776.225 267.706C776.161 267.66 776.099 267.642 776.037 267.6C776.004 267.585 775.975 267.562 775.951 267.534C775.574 267.327 775.364 267.181 775.364 267.181C775.364 267.181 776.371 268.859 779.036 269.656C778.407 270.451 777.629 271.399 777.629 271.399C772.994 271.251 771.234 268.21 771.234 268.21C771.234 261.455 774.255 255.98 774.255 255.98C777.276 253.712 780.149 253.776 780.149 253.776L780.359 254.028C776.583 255.121 774.84 256.777 774.84 256.777C774.84 256.777 775.304 256.526 776.079 256.17C778.323 255.185 780.105 254.911 780.84 254.847C780.966 254.827 781.072 254.805 781.198 254.805C784.836 254.315 788.535 255.006 791.75 256.777C791.75 256.777 790.091 255.205 786.525 254.114L786.818 253.779C786.818 253.779 789.694 253.714 792.712 255.982C792.712 255.982 795.733 261.457 795.733 268.212C795.733 268.21 793.951 271.251 789.314 271.399V271.399Z" fill="black"/>
<g clip-path="url(#clip0_172_2127)">
<path d="M656 243C644.955 243 636 251.955 636 263C636 274.045 644.953 283 656 283C667.045 283 676 274.045 676 263C676 251.953 667.045 243 656 243ZM655.98 245.093C665.883 245.082 673.905 253.102 673.905 262.995C673.905 272.888 665.883 280.91 655.992 280.908C646.098 280.908 638.077 272.888 638.077 262.995C638.077 253.117 646.075 245.103 655.98 245.093V245.093ZM655.447 252.705C653.472 252.704 651.577 253.482 650.173 254.87C649.478 255.545 648.925 256.352 648.548 257.245C648.171 258.137 647.977 259.096 647.978 260.065V261.697L647.052 263.368V265.775C647.053 266.851 647.27 267.916 647.69 268.907C648.109 269.898 648.722 270.795 649.493 271.545C651.064 273.086 653.177 273.948 655.377 273.945H656.87C659.063 273.945 661.17 273.083 662.737 271.545C663.509 270.795 664.123 269.898 664.543 268.907C664.963 267.916 665.18 266.851 665.182 265.775V263.367L664.265 261.695V260.062C664.264 259.093 664.069 258.134 663.691 257.242C663.313 256.35 662.76 255.543 662.065 254.868C660.66 253.479 658.764 252.701 656.788 252.703L655.447 252.705ZM655.447 255.988H656.788C657.881 255.992 658.929 256.425 659.705 257.195C660.48 257.948 660.918 258.983 660.922 260.065L660.927 261.748H651.31V260.065C651.313 258.983 651.752 257.948 652.527 257.195C653.303 256.425 654.351 255.991 655.445 255.987L655.447 255.988ZM656.22 264.648H656.27C658.827 264.61 659.52 268.155 657.135 269.082H656.992V271.008C656.992 271.15 656.957 271.289 656.89 271.413C656.822 271.537 656.724 271.642 656.605 271.718H655.753C655.632 271.641 655.531 271.534 655.462 271.407C655.392 271.281 655.354 271.139 655.353 270.995V269.083C652.97 268.157 653.662 264.612 656.22 264.65V264.648Z" fill="black"/>
</g>
<defs>
<clipPath id="clip0_172_2127">
<rect width="40" height="40" fill="white" transform="translate(636 243)"/>
</clipPath>
</defs>
</svg>
